<svg xmlns="http://www.w3.org/2000/svg" viewBox="154.46 143.95 299.19 286.66"><g id="freepik--Character--inject-7"><path d="M278.29,251.86a.87.87,0,0,1-.82.82c-1-.05-2.22-.14-3.58-.23-2.09-8.7-4.65-15.73-4.09-13a42.94,42.94,0,0,1,.57,12.79l-7.05-.57c-.84-14.94-3-26.22-3.18-22.86-.88,13.58-2.24,17.8-3.79,22.29-17-1.43-39.3-3.56-55.38-5.44-.79-8.3-1.27-17.24-1.63-16.67-2.79,4.27-4.25,10.8-5,15.88-5.11-.64-9.19-1.24-11.66-1.73,0,0-.3-6.93-.18-9.18a46.91,46.91,0,0,1,4-16.74c2.44-5.43,6-10,9.49-14.78l.09-.11s0,0,0,0a48.36,48.36,0,0,0,5.66-9.95l0-.07a46.61,46.61,0,0,0,2.39-7.91c2-9.85,8.79-17.72,18.49-19.13,19.86-14.32,36.64-5,40.3,8.46.35,1.31.66,2.8,1,4.42v.05c1.06,6,1.69,13.67,2.43,19.63,0,0,0,0,0,0s0,0,0,.06v0a53.91,53.91,0,0,0,1.22,6.94C270.75,215.78,280.17,223,278.29,251.86Z" style="fill:#263238"/><path d="M218.29,167.4c-6.56,2.4-10.94,6.58-12.84,13.72-1.11,4.16-1.94,8.26-4.09,12s-5.32,6.94-8.5,10c-5,4.8-8.77,9.75-10.39,16.8s-2.41,15.74-.86,22.81a0,0,0,0,0,.07,0c-1.08-7.11.11-16.6,2.28-23.61,2.38-7.71,7.49-12.09,12.84-17.48a33.07,33.07,0,0,0,8.83-15.21c.93-3.53,1.37-7.27,3.26-10.46,2.25-3.82,6-5.93,9.74-7.77A.43.43,0,0,0,218.29,167.4Z" style="fill:#263238"/><path d="M276.47,217.29c-3.59-6.21-7.46-11.61-9.08-18.94-1.47-6.68-1.91-13.6-3.42-20.28,0-.11-.19-.08-.16,0,2.13,11.79,1.33,23.3,7.39,33.77,3.29,5.69,6.63,11,8.43,17.54a55.52,55.52,0,0,1,1.42,21,.18.18,0,1,0,.35.05A46.08,46.08,0,0,0,276.47,217.29Z" style="fill:#263238"/><path d="M252.28,256.7c31.94,33.47,71.65,103.43,63.79,117.34-8.74,15.5-54.8-32.15-53.35-34.43,1.23-1.94-14.69-44.06-26.25-74.87S244.38,248.42,252.28,256.7Z" style="fill: rgb(255, 196, 192);"/><path d="M291.41,296.83l-45.85,8.26s-11.45-32.5-13.72-50.54c-1.28-10.11,4.67-10.52,12.14-5.15C270.15,268.21,291.41,296.83,291.41,296.83Z" style="fill:#F05A26"/><path d="M242,260.27a3.69,3.69,0,0,1-.77.89,5.35,5.35,0,0,1-.5.4h-.14a4.54,4.54,0,0,1-1.26-1.3,1.4,1.4,0,0,1-.09-1.35.66.66,0,0,1,.59-.34.88.88,0,0,0,1.65,0,.67.67,0,0,1,.6.34A1.42,1.42,0,0,1,242,260.27Zm14.17-1.15a1.53,1.53,0,0,0,.17,1.14,4.53,4.53,0,0,0,1.26,1.3h.14a4.82,4.82,0,0,0,.51-.4.57.57,0,0,0,.11-.11C257.68,260.41,257,259.75,256.21,259.12ZM233.61,248a.65.65,0,0,0-.59-.34.79.79,0,0,0-.38.09h0a6.32,6.32,0,0,0-.87,2.62,3.22,3.22,0,0,0,.36.27h.14s.23-.17.49-.4a3.69,3.69,0,0,0,.77-.89A1.42,1.42,0,0,0,233.61,248Zm8.51,32.77a.67.67,0,0,0-.6-.34.88.88,0,0,1-1.65,0,.66.66,0,0,0-.59.34,1.4,1.4,0,0,0,.09,1.35,4.45,4.45,0,0,0,1.26,1.29h.14a4.43,4.43,0,0,0,.5-.39,3.74,3.74,0,0,0,.77-.9A1.4,1.4,0,0,0,242.12,280.73Zm17,0a.68.68,0,0,0-.6-.34.94.94,0,0,0-.83.58.92.92,0,0,0-.82-.58.68.68,0,0,0-.6.34,1.4,1.4,0,0,0,.09,1.35,4.44,4.44,0,0,0,1.27,1.29h.13a5.1,5.1,0,0,0,.51-.39,3.7,3.7,0,0,0,.76-.9A1.43,1.43,0,0,0,259.14,280.73Zm17,0a.67.67,0,0,0-.6-.34.92.92,0,0,0-.82.58.93.93,0,0,0-.83-.58.66.66,0,0,0-.59.34,1.4,1.4,0,0,0,.08,1.35,4.44,4.44,0,0,0,1.27,1.29h.14a5.75,5.75,0,0,0,.5-.39,3.49,3.49,0,0,0,.76-.9A1.4,1.4,0,0,0,276.15,280.73Zm-25.52-11a.67.67,0,0,0-.6-.34.92.92,0,0,0-.82.58.93.93,0,0,0-.83-.58.69.69,0,0,0-.6.34,1.43,1.43,0,0,0,.09,1.35,4.53,4.53,0,0,0,1.27,1.3h.13s.25-.17.51-.4a3.49,3.49,0,0,0,.76-.9A1.4,1.4,0,0,0,250.63,269.78Zm17,0a.69.69,0,0,0-.6-.34.88.88,0,0,1-1.65,0,.67.67,0,0,0-.6.34,1.4,1.4,0,0,0,.09,1.35,4.68,4.68,0,0,0,1.26,1.3h.14s.24-.17.51-.4a3.94,3.94,0,0,0,.76-.9A1.43,1.43,0,0,0,267.65,269.78Zm-8.51,32.76a.71.71,0,0,0-.6-.34.92.92,0,0,0-.82.58.94.94,0,0,0-.83-.58.67.67,0,0,0-.59.34,1.12,1.12,0,0,0-.14.64l3-.54A.19.19,0,0,0,259.14,302.54Zm-8.51-10.94a.68.68,0,0,0-.6-.35.93.93,0,0,0-.82.59.94.94,0,0,0-.83-.59.7.7,0,0,0-.6.35,1.43,1.43,0,0,0,.09,1.35,4.44,4.44,0,0,0,1.27,1.29h.13a3.65,3.65,0,0,0,.51-.4,3.29,3.29,0,0,0,.76-.89A1.4,1.4,0,0,0,250.63,291.6Zm17,0a.7.7,0,0,0-.6-.35.87.87,0,0,1-1.65,0,.68.68,0,0,0-.6.35,1.4,1.4,0,0,0,.09,1.35,4.59,4.59,0,0,0,1.26,1.29h.14a4.45,4.45,0,0,0,.51-.4,3.68,3.68,0,0,0,.76-.89A1.43,1.43,0,0,0,267.65,291.6Zm17,0a.68.68,0,0,0-.6-.35.93.93,0,0,0-.82.59,1,1,0,0,0-.83-.59.69.69,0,0,0-.6.35,1.43,1.43,0,0,0,.09,1.35,4.44,4.44,0,0,0,1.27,1.29h.13a4.45,4.45,0,0,0,.51-.4,3.29,3.29,0,0,0,.76-.89A1.4,1.4,0,0,0,284.66,291.6Z" style="fill:#fff"/><path d="M245.86,297.58c6.95-1.86,25.94-6.34,38.67-7.64.08,0,.14.28.07.3C274.17,292.92,253,296.76,246,298,245.82,298,245.73,297.61,245.86,297.58Z" style="fill:#263238"/><path d="M285.27,297.94l-39.72,7.14s-11.44-32.49-13.71-50.52c-.82-6.47,1.33-9,4.94-8.53Z" style="opacity:0.1"/><path d="M270.91,372.67H154.69s10.57-81.08,48-123.71c10.1-11.5,28.42-8.1,37.08-.32a81.65,81.65,0,0,1,8.43,9.58c7.87,10.12,20.73,34.4,21.93,41,2,10.86-7.62,22.6-7.62,22.6Z" style="fill:#F05A26"/><path d="M208,260.27a3.88,3.88,0,0,1-.76.89,6.34,6.34,0,0,1-.51.4h-.13a4.53,4.53,0,0,1-1.27-1.3,1.4,1.4,0,0,1-.09-1.35.67.67,0,0,1,.6-.34.92.92,0,0,1,.82.58.93.93,0,0,1,.83-.58.69.69,0,0,1,.6.34A1.45,1.45,0,0,1,208,260.27Zm17.1-1.36a.67.67,0,0,0-.6-.34.92.92,0,0,0-.82.58.94.94,0,0,0-.83-.58.68.68,0,0,0-.6.34,1.43,1.43,0,0,0,.09,1.35,4.53,4.53,0,0,0,1.27,1.3h.13a4.82,4.82,0,0,0,.51-.4,3.45,3.45,0,0,0,.76-.89A1.42,1.42,0,0,0,225.11,258.91Zm17,0a.67.67,0,0,0-.6-.34.88.88,0,0,1-1.65,0,.66.66,0,0,0-.59.34,1.4,1.4,0,0,0,.09,1.35,4.54,4.54,0,0,0,1.26,1.3h.14a5.35,5.35,0,0,0,.5-.4,3.69,3.69,0,0,0,.77-.89A1.42,1.42,0,0,0,242.12,258.91ZM216.6,248a.67.67,0,0,0-.6-.34.93.93,0,0,0-.82.58,1,1,0,0,0-.83-.58.66.66,0,0,0-.59.34,1.42,1.42,0,0,0,.08,1.36,4.73,4.73,0,0,0,1.27,1.29h.14s.24-.17.5-.4a3.29,3.29,0,0,0,.76-.89A1.42,1.42,0,0,0,216.6,248Zm17,0a.68.68,0,0,0-.6-.34,1,1,0,0,0-.83.58.93.93,0,0,0-.82-.58.67.67,0,0,0-.6.34,1.42,1.42,0,0,0,.09,1.36,4.59,4.59,0,0,0,1.27,1.29h.13a6.34,6.34,0,0,0,.51-.4,3.48,3.48,0,0,0,.76-.89A1.45,1.45,0,0,0,233.62,248Zm-42.54,32.77a.67.67,0,0,0-.6-.34.92.92,0,0,0-.82.58.93.93,0,0,0-.83-.58.69.69,0,0,0-.6.34,1.43,1.43,0,0,0,.09,1.35,4.44,4.44,0,0,0,1.27,1.29h.14a5.75,5.75,0,0,0,.5-.39,3.49,3.49,0,0,0,.76-.9A1.4,1.4,0,0,0,191.08,280.73Zm17,0a.69.69,0,0,0-.6-.34.93.93,0,0,0-.83.58.92.92,0,0,0-.82-.58.67.67,0,0,0-.6.34,1.4,1.4,0,0,0,.09,1.35,4.44,4.44,0,0,0,1.27,1.29h.13a5.1,5.1,0,0,0,.51-.39,3.94,3.94,0,0,0,.76-.9A1.43,1.43,0,0,0,208.1,280.73Zm17,0a.67.67,0,0,0-.6-.34.92.92,0,0,0-.82.58.94.94,0,0,0-.83-.58.68.68,0,0,0-.6.34,1.43,1.43,0,0,0,.09,1.35,4.44,4.44,0,0,0,1.27,1.29h.13a4.07,4.07,0,0,0,.51-.39,3.49,3.49,0,0,0,.76-.9A1.4,1.4,0,0,0,225.11,280.73Zm17,0a.67.67,0,0,0-.6-.34.88.88,0,0,1-1.65,0,.66.66,0,0,0-.59.34,1.4,1.4,0,0,0,.09,1.35,4.45,4.45,0,0,0,1.26,1.29h.14a4.43,4.43,0,0,0,.5-.39,3.74,3.74,0,0,0,.77-.9A1.4,1.4,0,0,0,242.12,280.73Zm17,0a.68.68,0,0,0-.6-.34.94.94,0,0,0-.83.58.92.92,0,0,0-.82-.58.68.68,0,0,0-.6.34,1.4,1.4,0,0,0,.09,1.35,4.44,4.44,0,0,0,1.27,1.29h.13a5.1,5.1,0,0,0,.51-.39,3.7,3.7,0,0,0,.76-.9A1.43,1.43,0,0,0,259.14,280.73Zm-59.55-11a.68.68,0,0,0-.6-.34.92.92,0,0,0-.82.58.94.94,0,0,0-.83-.58.68.68,0,0,0-.6.34,1.43,1.43,0,0,0,.09,1.35,4.53,4.53,0,0,0,1.27,1.3h.13s.24-.17.51-.4a3.49,3.49,0,0,0,.76-.9A1.4,1.4,0,0,0,199.59,269.78Zm17,0a.67.67,0,0,0-.6-.34.92.92,0,0,0-.82.58.93.93,0,0,0-.83-.58.66.66,0,0,0-.59.34,1.4,1.4,0,0,0,.08,1.35,4.67,4.67,0,0,0,1.27,1.3h.14s.24-.17.5-.4a3.49,3.49,0,0,0,.76-.9A1.4,1.4,0,0,0,216.6,269.78Zm17,0a.68.68,0,0,0-.6-.34.94.94,0,0,0-.83.58.92.92,0,0,0-.82-.58.67.67,0,0,0-.6.34,1.4,1.4,0,0,0,.09,1.35,4.53,4.53,0,0,0,1.27,1.3h.13s.24-.17.51-.4a3.7,3.7,0,0,0,.76-.9A1.43,1.43,0,0,0,233.62,269.78Zm17,0a.67.67,0,0,0-.6-.34.92.92,0,0,0-.82.58.93.93,0,0,0-.83-.58.69.69,0,0,0-.6.34,1.43,1.43,0,0,0,.09,1.35,4.53,4.53,0,0,0,1.27,1.3h.13s.25-.17.51-.4a3.49,3.49,0,0,0,.76-.9A1.4,1.4,0,0,0,250.63,269.78Zm-76.57,32.76a.67.67,0,0,0-.59-.34.94.94,0,0,0-.83.58s0-.07,0-.1c-.25.64-.49,1.27-.71,1.92h0a5.63,5.63,0,0,0,.7.58h.14s.23-.17.5-.4a3.88,3.88,0,0,0,.76-.89A1.42,1.42,0,0,0,174.06,302.54Zm17,0a.67.67,0,0,0-.6-.34.93.93,0,0,0-.82.58,1,1,0,0,0-.83-.58.69.69,0,0,0-.6.34,1.45,1.45,0,0,0,.09,1.36,4.44,4.44,0,0,0,1.27,1.29h.14a4.92,4.92,0,0,0,.5-.4,3.29,3.29,0,0,0,.76-.89A1.42,1.42,0,0,0,191.08,302.54Zm17,0a.69.69,0,0,0-.6-.34,1,1,0,0,0-.83.58.93.93,0,0,0-.82-.58.67.67,0,0,0-.6.34,1.42,1.42,0,0,0,.09,1.36,4.44,4.44,0,0,0,1.27,1.29h.13a4.45,4.45,0,0,0,.51-.4,3.68,3.68,0,0,0,.76-.89A1.45,1.45,0,0,0,208.1,302.54Zm17,0a.67.67,0,0,0-.6-.34.93.93,0,0,0-.82.58,1,1,0,0,0-.83-.58.68.68,0,0,0-.6.34,1.45,1.45,0,0,0,.09,1.36,4.44,4.44,0,0,0,1.27,1.29h.13a3.65,3.65,0,0,0,.51-.4,3.29,3.29,0,0,0,.76-.89A1.42,1.42,0,0,0,225.11,302.54Zm17,0a.67.67,0,0,0-.6-.34.88.88,0,0,1-1.65,0,.66.66,0,0,0-.59.34,1.42,1.42,0,0,0,.09,1.36,4.45,4.45,0,0,0,1.26,1.29h.14a3.92,3.92,0,0,0,.5-.4,3.51,3.51,0,0,0,.77-.89A1.42,1.42,0,0,0,242.12,302.54Zm17,0a.68.68,0,0,0-.6-.34,1,1,0,0,0-.83.58.93.93,0,0,0-.82-.58.68.68,0,0,0-.6.34,1.42,1.42,0,0,0,.09,1.36,4.44,4.44,0,0,0,1.27,1.29h.13a4.45,4.45,0,0,0,.51-.4,3.48,3.48,0,0,0,.76-.89A1.45,1.45,0,0,0,259.14,302.54ZM182.57,291.6a.67.67,0,0,0-.59-.35.87.87,0,0,1-1.65,0,.68.68,0,0,0-.6.35,1.4,1.4,0,0,0,.09,1.35,4.59,4.59,0,0,0,1.26,1.29h.14a4.45,4.45,0,0,0,.51-.4,3.68,3.68,0,0,0,.76-.89A1.4,1.4,0,0,0,182.57,291.6Zm17,0a.69.69,0,0,0-.6-.35.93.93,0,0,0-.82.59,1,1,0,0,0-.83-.59.69.69,0,0,0-.6.35,1.43,1.43,0,0,0,.09,1.35,4.44,4.44,0,0,0,1.27,1.29h.13a4.45,4.45,0,0,0,.51-.4,3.29,3.29,0,0,0,.76-.89A1.4,1.4,0,0,0,199.59,291.6Zm17,0a.68.68,0,0,0-.6-.35.93.93,0,0,0-.82.59.94.94,0,0,0-.83-.59.67.67,0,0,0-.59.35,1.4,1.4,0,0,0,.08,1.35,4.57,4.57,0,0,0,1.27,1.29h.14a4.92,4.92,0,0,0,.5-.4,3.29,3.29,0,0,0,.76-.89A1.4,1.4,0,0,0,216.6,291.6Zm17,0a.69.69,0,0,0-.6-.35,1,1,0,0,0-.83.59.93.93,0,0,0-.82-.59.68.68,0,0,0-.6.35,1.4,1.4,0,0,0,.09,1.35,4.44,4.44,0,0,0,1.27,1.29h.13a4.45,4.45,0,0,0,.51-.4,3.48,3.48,0,0,0,.76-.89A1.43,1.43,0,0,0,233.62,291.6Zm17,0a.68.68,0,0,0-.6-.35.93.93,0,0,0-.82.59.94.94,0,0,0-.83-.59.7.7,0,0,0-.6.35,1.43,1.43,0,0,0,.09,1.35,4.44,4.44,0,0,0,1.27,1.29h.13a3.65,3.65,0,0,0,.51-.4,3.29,3.29,0,0,0,.76-.89A1.4,1.4,0,0,0,250.63,291.6Zm16.62-.32a.69.69,0,0,0-.2,0,1,1,0,0,0-.83.58.94.94,0,0,0-.83-.58.66.66,0,0,0-.59.34,1.42,1.42,0,0,0,.08,1.36,4.81,4.81,0,0,0,1.28,1.3h.13s.24-.17.5-.41a3.51,3.51,0,0,0,.77-.89,1.9,1.9,0,0,0,.18-.52h0Zm-93.18,33.08a.68.68,0,0,0-.6-.34.94.94,0,0,0-.83.58.92.92,0,0,0-.82-.58.67.67,0,0,0-.6.34,1.4,1.4,0,0,0,.09,1.35,4.53,4.53,0,0,0,1.27,1.3h.13a6.34,6.34,0,0,0,.51-.4,3.65,3.65,0,0,0,.76-.89A1.45,1.45,0,0,0,174.07,324.36Zm17,0a.67.67,0,0,0-.6-.34.92.92,0,0,0-.82.58.93.93,0,0,0-.83-.58.69.69,0,0,0-.6.34,1.43,1.43,0,0,0,.09,1.35,4.53,4.53,0,0,0,1.27,1.3h.14s.24-.17.5-.4a3.45,3.45,0,0,0,.76-.89A1.42,1.42,0,0,0,191.08,324.36Zm17,0a.69.69,0,0,0-.6-.34.93.93,0,0,0-.83.58.92.92,0,0,0-.82-.58.67.67,0,0,0-.6.34,1.4,1.4,0,0,0,.09,1.35,4.53,4.53,0,0,0,1.27,1.3h.13a6.34,6.34,0,0,0,.51-.4,3.88,3.88,0,0,0,.76-.89A1.45,1.45,0,0,0,208.1,324.36Zm17,0a.67.67,0,0,0-.6-.34.92.92,0,0,0-.82.58.94.94,0,0,0-.83-.58.68.68,0,0,0-.6.34,1.43,1.43,0,0,0,.09,1.35,4.53,4.53,0,0,0,1.27,1.3h.13a4.82,4.82,0,0,0,.51-.4,3.45,3.45,0,0,0,.76-.89A1.42,1.42,0,0,0,225.11,324.36Zm17,0a.67.67,0,0,0-.6-.34.88.88,0,0,1-1.65,0,.66.66,0,0,0-.59.34,1.4,1.4,0,0,0,.09,1.35,4.54,4.54,0,0,0,1.26,1.3h.14a5.35,5.35,0,0,0,.5-.4,3.69,3.69,0,0,0,.77-.89A1.42,1.42,0,0,0,242.12,324.36Zm17,0a.68.68,0,0,0-.6-.34.94.94,0,0,0-.83.58.92.92,0,0,0-.82-.58.68.68,0,0,0-.6.34,1.4,1.4,0,0,0,.09,1.35,4.53,4.53,0,0,0,1.27,1.3h.13a6.34,6.34,0,0,0,.51-.4,3.65,3.65,0,0,0,.76-.89A1.45,1.45,0,0,0,259.14,324.36Zm-76.57-10.95a.66.66,0,0,0-.59-.34.88.88,0,0,1-1.65,0,.67.67,0,0,0-.6.34,1.4,1.4,0,0,0,.09,1.35,4.68,4.68,0,0,0,1.26,1.3h.14a6.34,6.34,0,0,0,.51-.4,3.68,3.68,0,0,0,.76-.89A1.42,1.42,0,0,0,182.57,313.41Zm17,0a.68.68,0,0,0-.6-.34.92.92,0,0,0-.82.58.94.94,0,0,0-.83-.58.68.68,0,0,0-.6.34,1.43,1.43,0,0,0,.09,1.35,4.53,4.53,0,0,0,1.27,1.3h.13a6.34,6.34,0,0,0,.51-.4,3.29,3.29,0,0,0,.76-.89A1.42,1.42,0,0,0,199.59,313.41Zm17,0a.67.67,0,0,0-.6-.34.92.92,0,0,0-.82.58.93.93,0,0,0-.83-.58.66.66,0,0,0-.59.34,1.4,1.4,0,0,0,.08,1.35,4.67,4.67,0,0,0,1.27,1.3h.14s.24-.17.5-.4a3.29,3.29,0,0,0,.76-.89A1.42,1.42,0,0,0,216.6,313.41Zm17,0a.68.68,0,0,0-.6-.34.94.94,0,0,0-.83.58.92.92,0,0,0-.82-.58.67.67,0,0,0-.6.34,1.4,1.4,0,0,0,.09,1.35,4.53,4.53,0,0,0,1.27,1.3h.13a6.34,6.34,0,0,0,.51-.4,3.48,3.48,0,0,0,.76-.89A1.45,1.45,0,0,0,233.62,313.41Zm17,0a.67.67,0,0,0-.6-.34.92.92,0,0,0-.82.58.93.93,0,0,0-.83-.58.69.69,0,0,0-.6.34,1.43,1.43,0,0,0,.09,1.35,4.53,4.53,0,0,0,1.27,1.3h.13a4.82,4.82,0,0,0,.51-.4,3.29,3.29,0,0,0,.76-.89A1.42,1.42,0,0,0,250.63,313.41Zm16.42-.34a.93.93,0,0,0-.83.58.92.92,0,0,0-.83-.58.66.66,0,0,0-.59.34,1.4,1.4,0,0,0,.08,1.35,4.5,4.5,0,0,0,1.28,1.3h.13c.45-.82.91-1.71,1.34-2.66A.65.65,0,0,0,267.05,313.07Zm-93,33.11a.69.69,0,0,0-.6-.35,1,1,0,0,0-.83.59.93.93,0,0,0-.82-.59.68.68,0,0,0-.6.35,1.4,1.4,0,0,0,.09,1.35,4.44,4.44,0,0,0,1.27,1.29h.13a4.45,4.45,0,0,0,.51-.4,3.48,3.48,0,0,0,.76-.89A1.43,1.43,0,0,0,174.07,346.18Zm17,0a.68.68,0,0,0-.6-.35.93.93,0,0,0-.82.59.94.94,0,0,0-.83-.59.7.7,0,0,0-.6.35,1.43,1.43,0,0,0,.09,1.35,4.44,4.44,0,0,0,1.27,1.29h.14a4.92,4.92,0,0,0,.5-.4,3.29,3.29,0,0,0,.76-.89A1.4,1.4,0,0,0,191.08,346.18Zm17,0a.7.7,0,0,0-.6-.35.94.94,0,0,0-.83.59.93.93,0,0,0-.82-.59.68.68,0,0,0-.6.35,1.4,1.4,0,0,0,.09,1.35,4.44,4.44,0,0,0,1.27,1.29h.13a4.45,4.45,0,0,0,.51-.4,3.68,3.68,0,0,0,.76-.89A1.43,1.43,0,0,0,208.1,346.18Zm17,0a.68.68,0,0,0-.6-.35.93.93,0,0,0-.82.59,1,1,0,0,0-.83-.59.69.69,0,0,0-.6.35,1.43,1.43,0,0,0,.09,1.35,4.44,4.44,0,0,0,1.27,1.29h.13a3.65,3.65,0,0,0,.51-.4,3.29,3.29,0,0,0,.76-.89A1.4,1.4,0,0,0,225.11,346.18Zm17,0a.68.68,0,0,0-.6-.35.87.87,0,0,1-1.65,0,.67.67,0,0,0-.59.35,1.4,1.4,0,0,0,.09,1.35,4.45,4.45,0,0,0,1.26,1.29h.14a3.92,3.92,0,0,0,.5-.4,3.51,3.51,0,0,0,.77-.89A1.4,1.4,0,0,0,242.12,346.18Zm17,0a.69.69,0,0,0-.6-.35,1,1,0,0,0-.83.59.93.93,0,0,0-.82-.59.69.69,0,0,0-.6.35,1.4,1.4,0,0,0,.09,1.35,4.44,4.44,0,0,0,1.27,1.29h.13a4.45,4.45,0,0,0,.51-.4,3.48,3.48,0,0,0,.76-.89A1.43,1.43,0,0,0,259.14,346.18Zm-93.58-10.95a.67.67,0,0,0-.6-.34.92.92,0,0,0-.82.58.93.93,0,0,0-.83-.58.69.69,0,0,0-.6.34,1.43,1.43,0,0,0,.09,1.35,4.53,4.53,0,0,0,1.27,1.3h.13s.25-.17.51-.4a3.49,3.49,0,0,0,.76-.9A1.4,1.4,0,0,0,165.56,335.23Zm17,0a.66.66,0,0,0-.59-.34.88.88,0,0,1-1.65,0,.67.67,0,0,0-.6.34,1.4,1.4,0,0,0,.09,1.35,4.68,4.68,0,0,0,1.26,1.3h.14s.24-.17.51-.4a3.94,3.94,0,0,0,.76-.9A1.4,1.4,0,0,0,182.57,335.23Zm17,0a.68.68,0,0,0-.6-.34.92.92,0,0,0-.82.58.94.94,0,0,0-.83-.58.68.68,0,0,0-.6.34,1.43,1.43,0,0,0,.09,1.35,4.53,4.53,0,0,0,1.27,1.3h.13s.24-.17.51-.4a3.49,3.49,0,0,0,.76-.9A1.4,1.4,0,0,0,199.59,335.23Zm17,0a.67.67,0,0,0-.6-.34.92.92,0,0,0-.82.58.93.93,0,0,0-.83-.58.66.66,0,0,0-.59.34,1.4,1.4,0,0,0,.08,1.35,4.67,4.67,0,0,0,1.27,1.3h.14s.24-.17.5-.4a3.49,3.49,0,0,0,.76-.9A1.4,1.4,0,0,0,216.6,335.23Zm17,0a.68.68,0,0,0-.6-.34.94.94,0,0,0-.83.58.92.92,0,0,0-.82-.58.67.67,0,0,0-.6.34,1.4,1.4,0,0,0,.09,1.35,4.53,4.53,0,0,0,1.27,1.3h.13s.24-.17.51-.4a3.7,3.7,0,0,0,.76-.9A1.43,1.43,0,0,0,233.62,335.23Zm17,0a.67.67,0,0,0-.6-.34.92.92,0,0,0-.82.58.93.93,0,0,0-.83-.58.69.69,0,0,0-.6.34,1.43,1.43,0,0,0,.09,1.35,4.53,4.53,0,0,0,1.27,1.3h.13s.25-.17.51-.4a3.49,3.49,0,0,0,.76-.9A1.4,1.4,0,0,0,250.63,335.23Zm14.12.13a1.42,1.42,0,0,0,.13,1.22.62.62,0,0,0,.11.17ZM157.05,368a.68.68,0,0,0-.6-.35.93.93,0,0,0-.82.58,1.41,1.41,0,0,0-.21-.31c-.16.89-.27,1.67-.38,2.32a5.6,5.6,0,0,0,.52.4h.14l.5-.39a3.21,3.21,0,0,0,.76-.91A1.38,1.38,0,0,0,157.05,368Zm17,0a.68.68,0,0,0-.6-.34,1,1,0,0,0-.83.58.93.93,0,0,0-.82-.58.67.67,0,0,0-.6.34,1.42,1.42,0,0,0,.09,1.36,4.59,4.59,0,0,0,1.27,1.29h.13a6.34,6.34,0,0,0,.51-.4,3.48,3.48,0,0,0,.76-.89A1.45,1.45,0,0,0,174.07,368Zm17,0a.67.67,0,0,0-.6-.34.93.93,0,0,0-.82.58,1,1,0,0,0-.83-.58.69.69,0,0,0-.6.34,1.45,1.45,0,0,0,.09,1.36,4.59,4.59,0,0,0,1.27,1.29h.14s.24-.17.5-.4a3.29,3.29,0,0,0,.76-.89A1.42,1.42,0,0,0,191.08,368Zm17,0a.69.69,0,0,0-.6-.34,1,1,0,0,0-.83.58.93.93,0,0,0-.82-.58.67.67,0,0,0-.6.34,1.42,1.42,0,0,0,.09,1.36,4.59,4.59,0,0,0,1.27,1.29h.13a6.34,6.34,0,0,0,.51-.4,3.68,3.68,0,0,0,.76-.89A1.45,1.45,0,0,0,208.1,368Zm17,0a.67.67,0,0,0-.6-.34.93.93,0,0,0-.82.58,1,1,0,0,0-.83-.58.68.68,0,0,0-.6.34,1.45,1.45,0,0,0,.09,1.36,4.59,4.59,0,0,0,1.27,1.29h.13a4.82,4.82,0,0,0,.51-.4,3.29,3.29,0,0,0,.76-.89A1.42,1.42,0,0,0,225.11,368Zm17,0a.67.67,0,0,0-.6-.34.88.88,0,0,1-1.65,0,.66.66,0,0,0-.59.34,1.42,1.42,0,0,0,.09,1.36,4.6,4.6,0,0,0,1.26,1.29h.14a5.35,5.35,0,0,0,.5-.4,3.51,3.51,0,0,0,.77-.89A1.42,1.42,0,0,0,242.12,368Zm17,0a.68.68,0,0,0-.6-.34,1,1,0,0,0-.83.58.93.93,0,0,0-.82-.58.68.68,0,0,0-.6.34,1.42,1.42,0,0,0,.09,1.36,4.59,4.59,0,0,0,1.27,1.29h.13a6.34,6.34,0,0,0,.51-.4,3.48,3.48,0,0,0,.76-.89A1.45,1.45,0,0,0,259.14,368ZM165.56,357a.67.67,0,0,0-.6-.34.93.93,0,0,0-.82.58,1,1,0,0,0-.83-.58.69.69,0,0,0-.6.34,1.45,1.45,0,0,0,.09,1.36,4.44,4.44,0,0,0,1.27,1.29h.13a3.65,3.65,0,0,0,.51-.4,3.29,3.29,0,0,0,.76-.89A1.42,1.42,0,0,0,165.56,357Zm17,0a.66.66,0,0,0-.59-.34.88.88,0,0,1-1.65,0,.67.67,0,0,0-.6.34,1.42,1.42,0,0,0,.09,1.36,4.59,4.59,0,0,0,1.26,1.29h.14a4.45,4.45,0,0,0,.51-.4,3.68,3.68,0,0,0,.76-.89A1.42,1.42,0,0,0,182.57,357Zm17,0a.68.68,0,0,0-.6-.34.93.93,0,0,0-.82.58,1,1,0,0,0-.83-.58.68.68,0,0,0-.6.34,1.45,1.45,0,0,0,.09,1.36,4.44,4.44,0,0,0,1.27,1.29h.13a4.45,4.45,0,0,0,.51-.4,3.29,3.29,0,0,0,.76-.89A1.42,1.42,0,0,0,199.59,357Zm17,0a.67.67,0,0,0-.6-.34.93.93,0,0,0-.82.58,1,1,0,0,0-.83-.58.66.66,0,0,0-.59.34,1.42,1.42,0,0,0,.08,1.36,4.57,4.57,0,0,0,1.27,1.29h.14a4.92,4.92,0,0,0,.5-.4,3.29,3.29,0,0,0,.76-.89A1.42,1.42,0,0,0,216.6,357Zm17,0a.68.68,0,0,0-.6-.34,1,1,0,0,0-.83.58.93.93,0,0,0-.82-.58.67.67,0,0,0-.6.34,1.42,1.42,0,0,0,.09,1.36,4.44,4.44,0,0,0,1.27,1.29h.13a4.45,4.45,0,0,0,.51-.4,3.48,3.48,0,0,0,.76-.89A1.45,1.45,0,0,0,233.62,357Zm17,0a.67.67,0,0,0-.6-.34.93.93,0,0,0-.82.58,1,1,0,0,0-.83-.58.69.69,0,0,0-.6.34,1.45,1.45,0,0,0,.09,1.36,4.44,4.44,0,0,0,1.27,1.29h.13a3.65,3.65,0,0,0,.51-.4,3.29,3.29,0,0,0,.76-.89A1.42,1.42,0,0,0,250.63,357Zm17,0a.69.69,0,0,0-.6-.34.88.88,0,0,1-1.65,0,.67.67,0,0,0-.6.34,1.42,1.42,0,0,0,.09,1.36,4.59,4.59,0,0,0,1.26,1.29h.14a4.45,4.45,0,0,0,.51-.4,3.68,3.68,0,0,0,.76-.89A1.45,1.45,0,0,0,267.65,357Z" style="fill:#fff"/><path d="M271.33,298.6c-1.08-4.48-3.57-8.57-5.76-12.57-2.31-4.23-4.73-8.39-7.22-12.51l-.27-.44c-.41-1.32-1-2.61-1.51-3.89-.64-1.63-1.33-3.25-2-4.9,0-.05-.11,0-.09,0,.52,1.71,1,3.42,1.66,5.09l.48,1.31c-.84-1.37-1.68-2.74-2.55-4.1-1.48-2.31-3-4.57-4.52-6.88,0-.06-.13,0-.09.05,2.37,4.06,4.65,8.17,7,12.23s4.68,8.14,6.9,12.28c1.09,2.05,2.16,4.12,3.19,6.21a53.5,53.5,0,0,1,2.66,6.06,19.54,19.54,0,0,1,.09,12.44c-1.43,4.58-4,8.74-6.4,12.85-.1.16.15.36.28.2C268.31,315.37,273.44,307.39,271.33,298.6Z" style="fill:#263238"/><path d="M316.07,374c-7.48,10.34-27.42,12-77.23,20.9-6.9,1.23-28.67-45.08-21.38-46.77,9.19-2.14,45.3-8.42,48-8.55C288.22,338.56,321.15,367,316.07,374Z" style="fill: rgb(255, 196, 192);"/><path d="M227.43,346.07s-21.09,2.82-31.7,7.74c-14.22,6.58-23.79,18.12-27.51,23.19-7.76,10.6-19.19,41.58-10.84,46.44,7.55,4.39,17.64-27.88,17.64-27.88s-15.71,31.2-5.64,34.81S189,395.87,189,395.87s-15.43,32.42-4.46,34.5c8.3,1.57,18.92-32.46,18.92-32.46s-13.06,27.95-4.6,29.94C208.25,430,220,399.24,220,399.24c22.36,1.43,33.59-7,40.86-14C262.64,383.55,227.43,346.07,227.43,346.07Z" style="fill: rgb(255, 196, 192);"/><path d="M179.77,384.42c-2,3.6-4,7.23-5.66,11s-3.17,7.59-4.47,11.48c-3.17,9.57-3.67,16.05-3.59,15.65,1.75-9.39,7.45-23,9.11-26.71s3.11-7.59,4.75-11.35C180,384.39,179.81,384.34,179.77,384.42Z" style="fill:#263238"/><path d="M193.46,390.14c-2.33,4.71-4.81,9.29-6.93,14.1s-3.7,9.51-5.47,14.42c-.14.38.11.33.26,0,2-4.85,4.17-9.17,6.19-14s3.87-9.72,6.06-14.44C193.61,390.12,193.49,390.07,193.46,390.14Z" style="fill:#263238"/><path d="M206.09,392.94c-3.93,7-6.55,14.73-9,22.36-.12.38.19.28.34-.1,2.83-7.49,5-13.39,8.85-22.13C206.39,392.94,206.17,392.79,206.09,392.94Z" style="fill:#263238"/><path d="M287.44,345.21c-3.31-2.1-12.69-7-21.91-5.66a.08.08,0,1,0,0,.16c7.6,0,18.46,3.86,21.84,5.63C287.45,345.39,287.52,345.26,287.44,345.21Z" style="fill:#263238"/><path d="M218.42,243.49c.5,1.92,10.05,14.18,18.85,13.52,2.87-.22,2.38-15.91,2.38-15.91l.23-1.17,3.18-16.34-19.41-11.72-2.8-1.54s-.58,4.53-1.24,10.17c0,.26-.07.52-.1.8s-.09.62-.12.92c-.11.84-.22,1.7-.31,2.56-.07.66-.14,1.29-.19,2s-.12,1.36-.19,2.05A107.63,107.63,0,0,0,218.42,243.49Z" style="fill: rgb(255, 196, 192);"/><path d="M219.61,220.5a33.39,33.39,0,0,0,20.27,19.43l3.18-16.34-19.41-11.72-2.8-1.54S220.27,214.86,219.61,220.5Z" style="fill:#263238"/><path d="M267.22,195.73c4.71,28.84-12,34.92-18.24,35.93-5.65.91-25,3.32-32.66-24.88s4.26-39.5,17.06-42.28S262.51,166.9,267.22,195.73Z" style="fill: rgb(255, 196, 192);"/><path d="M260.37,189.9a19.06,19.06,0,0,1-2-.19,3.28,3.28,0,0,1-2-.59,1,1,0,0,1-.14-1.27,2.58,2.58,0,0,1,2.46-.88,3.8,3.8,0,0,1,2.51,1.07A1.11,1.11,0,0,1,260.37,189.9Z" style="fill:#263238"/><path d="M241.69,192.12c.68-.16,1.27-.41,1.92-.63a3.28,3.28,0,0,0,1.83-1,1,1,0,0,0-.14-1.26,2.58,2.58,0,0,0-2.59-.32,3.8,3.8,0,0,0-2.22,1.6A1.11,1.11,0,0,0,241.69,192.12Z" style="fill:#263238"/><path d="M246.38,199c0-.08-.14.11-.13.19.33,2,.37,4.27-1.32,5.16-.05,0,0,.13,0,.11C247.1,203.88,247,200.82,246.38,199Z" style="fill:#263238"/><path d="M244.34,197.19c-3.21.19-2.59,6.59.37,6.41S247,197,244.34,197.19Z" style="fill:#263238"/><path d="M243.12,197.65c-.53.42-1,1.11-1.68,1.24s-1.42-.46-2-1.06c-.05-.06-.1,0-.1.09.1,1.22.69,2.43,2,2.49s2-1.11,2.16-2.37C243.56,197.8,243.33,197.49,243.12,197.65Z" style="fill:#263238"/><path d="M257.72,197.08c0-.08.16.08.16.16.11,2,.58,4.24,2.43,4.74.05,0,.06.12,0,.12C258.08,202,257.5,199,257.72,197.08Z" style="fill:#263238"/><path d="M259.3,194.85c3.17-.52,4,5.85,1.05,6.33S256.65,195.29,259.3,194.85Z" style="fill:#263238"/><path d="M260.69,195.1c.54.28,1.12.83,1.72.79s1.13-.8,1.5-1.52c0-.07.09,0,.1.06.19,1.21-.05,2.53-1.19,2.92s-2-.6-2.4-1.78C260.34,195.36,260.47,195,260.69,195.1Z" style="fill:#263238"/><path d="M247,214.69c.5.44,1,1.06,1.73,1.08a5.11,5.11,0,0,0,2.11-.6.07.07,0,0,1,.09.1,2.69,2.69,0,0,1-2.47,1.2,2.13,2.13,0,0,1-1.65-1.68C246.74,214.68,246.89,214.63,247,214.69Z" style="fill:#263238"/><path d="M255.33,206.23s.73,2.93.88,4.33a7.59,7.59,0,0,1-7.58-1.48c-.12-.11.05-.29.19-.21a10.13,10.13,0,0,0,6.27,1.08c0-.39-1.42-5-1.2-5a12.12,12.12,0,0,1,3.26.38c-1.35-6.14-3.66-12-4.91-18.14a.19.19,0,0,1,.36-.13c2.86,6,4.56,13,6.11,19.31C258.91,207.15,255.92,206.41,255.33,206.23Z" style="fill:#263238"/><path d="M254.28,210.61a7.16,7.16,0,0,1-2.7,2.51,3.28,3.28,0,0,1-2,.3c-1.46-.25-1.62-1.56-1.45-2.71a8.14,8.14,0,0,1,.48-1.78A9.45,9.45,0,0,0,254.28,210.61Z" style="fill:#263238"/><path d="M251.58,213.12a3.28,3.28,0,0,1-2,.3c-1.46-.25-1.62-1.56-1.45-2.71C249.71,210.73,251.32,211.64,251.58,213.12Z" style="fill:#ff9abb"/><path d="M217.18,205.33c5.52.49,6.45-12.15,6.45-12.15s23.26-4.86,24.52-24c0,0,4.48,12,17,17,0,0-1.62-20.86-18.34-24.29,0,0-20.84-6.7-31.78,10.05S213.48,205,217.18,205.33Z" style="fill:#263238"/><path d="M248.18,167.77a20.89,20.89,0,0,1-.71,8.74,21.57,21.57,0,0,1-4.13,7.87,18.11,18.11,0,0,1-1.52,1.64l-.78.8c-.28.24-.58.47-.87.7-.59.45-1.16.93-1.77,1.36s-1.27.76-1.91,1.13c-.33.18-.64.37-1,.54l-1,.44-2,.87c-1.4.45-2.82.82-4.23,1.17,1.32-.64,2.68-1.13,4-1.77l1.91-1,.94-.5c.31-.19.59-.41.89-.61q.87-.62,1.77-1.2c.56-.43,1.08-.91,1.63-1.37l.81-.68.73-.77a19,19,0,0,0,1.41-1.57,24.76,24.76,0,0,0,4.19-7.34,26.63,26.63,0,0,0,1.16-4.13A25.65,25.65,0,0,0,248.18,167.77Z" style="fill:#263238"/><path d="M221.27,207.27s-7.05-8.62-11-6,1.82,15.4,6.8,16.84a4.94,4.94,0,0,0,6.4-3.14Z" style="fill: rgb(255, 196, 192);"/><path d="M212,204.87c-.07,0-.08.11,0,.13,3.5,1.12,5.53,4.13,7,7.31-1.11-1.19-2.54-1.77-4.13-.44-.08.07,0,.2.1.17a3.06,3.06,0,0,1,3.42.81,14,14,0,0,1,1.8,2.58c.18.29.72.08.58-.26l0-.07C220.52,210.76,216.7,205,212,204.87Z" style="fill:#263238"/><path d="M219.81,216.56a1.19,1.19,0,1,1-1.19-1.18A1.19,1.19,0,0,1,219.81,216.56Z" style="fill:#fff"/><circle cx="216.03" cy="214.62" r="0.85" style="fill:#fff"/><rect x="207.86" y="203.23" width="3.01" height="1.25" rx="0.6" transform="translate(18.22 -17.17) rotate(4.91)" style="fill:#F05A26"/><rect x="207.8" y="205.24" width="3.01" height="1.25" rx="0.6" transform="matrix(0.99, -0.13, 0.13, 0.99, -24.53, 28.35)" style="fill:#F05A26"/><path d="M209.5,187.47l-1.66,2.65,8.49,7.67,3.6-6Zm6.49,7.38-5.93-4.77.37-.63,6.87,3.31Z" style="fill:#F05A26"/><path d="M210.39,182.58l-.54,3.08,10.76,3.91,1.09-6.89Zm8.8,4.39-7.3-2.18.11-.72,7.61.48Z" style="fill:#F05A26"/><path d="M220.86,165.35c2.23-.83,4.35-13.27-3.83-19.19s-18.66.84-14.27,11C205.54,163.64,216.15,167.11,220.86,165.35Z" style="fill:#263238"/><path d="M205.59,145.42a14,14,0,0,0-4.71,7.89,8.39,8.39,0,0,0,2.48,8,17,17,0,0,0,8.12,4,25.26,25.26,0,0,0,4.67.57,12.55,12.55,0,0,0,4.71-.52,11.17,11.17,0,0,1-4.67,1.39,20.94,20.94,0,0,1-4.94-.08,16.4,16.4,0,0,1-9.12-4,9.74,9.74,0,0,1-2.69-4.47,9.88,9.88,0,0,1,.09-5.15A12.33,12.33,0,0,1,205.59,145.42Z" style="fill:#263238"/><polygon points="294.7 279.29 308.62 277.41 303.18 237.11 285.57 239.49 294.7 279.29" style="fill:#F05A26"/><polygon points="285.57 239.49 289.05 254.67 294.7 279.3 308.62 277.42 303.18 237.11 285.57 239.49" style="fill:#F05A26"/><polygon points="285.57 239.49 289.05 254.67 305.26 252.48 303.18 237.11 285.57 239.49" style="opacity:0.1"/><rect x="283.51" y="227.46" width="22.11" height="16.8" transform="translate(618.03 430.2) rotate(172.31)" style="fill:#F05A26"/><polygon points="266.99 224.91 284.24 224.31 280.61 197.38 263.81 201.37 266.99 224.91" style="fill:#F05A26"/><polygon points="288.64 190.86 294.01 230.61 323.03 230.18 392.74 245.65 379.86 150.18 316.75 183.58 288.64 190.86" style="fill:#F05A26"/><ellipse cx="387.85" cy="197.71" rx="15.56" ry="48.41" transform="translate(-22.96 53.64) rotate(-7.69)" style="fill:#F05A26"/><ellipse cx="388.53" cy="196.78" rx="12.74" ry="42.97" transform="translate(-22.83 53.73) rotate(-7.69)" style="opacity:0.2"/><path d="M378,198.21c.42,3.13.93,6.16,1.52,9.07A9.6,9.6,0,0,0,394,197.79l-.6-4.5A9.6,9.6,0,0,0,377,187.92C377.15,191.23,377.49,194.68,378,198.21Z" style="fill:#F05A26"/><polygon points="278.9 234.89 312.26 233.74 305.23 181.65 272.76 189.38 278.9 234.89" style="fill:#F05A26"/><polygon points="278.9 234.89 312.26 233.74 305.23 181.65 272.76 189.38 278.9 234.89" style="opacity:0.2"/><path d="M376.27,157.32a30,30,0,0,0-3.77,10.16,68.9,68.9,0,0,0-1.29,10.81c-.13,1.82-.08,3.63-.11,5.45s.1,3.63.22,5.44.24,3.63.44,5.43.39,3.61.64,5.41a118.88,118.88,0,0,0,4.79,21.22,61.9,61.9,0,0,0,4.33,10c1.81,3.12,3.91,6.23,6.88,8.34A26.62,26.62,0,0,1,382,231a62.24,62.24,0,0,1-4-10,126.68,126.68,0,0,1-4.53-21.12A129.64,129.64,0,0,1,372,178.32a68,68,0,0,1,1-10.75A31.36,31.36,0,0,1,376.27,157.32Z" style="opacity:0.2"/><path d="M411.18,150.49c-2,1.48-4,3-5.92,4.63s-3.84,3.22-5.73,4.87-3.75,3.33-5.56,5.06l-2.71,2.6c-.88.9-1.79,1.77-2.64,2.69,1-.73,2-1.51,3-2.27l2.93-2.36c1.95-1.58,3.84-3.22,5.73-4.87s3.74-3.33,5.55-5.06S409.46,152.32,411.18,150.49Z" style="fill:#263238"/><path d="M394.26,223.18c2.71.82,5.45,1.52,8.19,2.21s5.5,1.3,8.26,1.91,5.53,1.16,8.31,1.66l4.17.73c1.41.21,2.8.45,4.21.62-1.36-.42-2.73-.77-4.09-1.16l-4.11-1.05c-2.74-.69-5.49-1.3-8.25-1.91s-5.53-1.16-8.31-1.66S397.07,223.54,394.26,223.18Z" style="fill:#263238"/><path d="M446.65,215.43c-4.13-.49-8.27-.86-12.41-1.21s-8.28-.64-12.42-.91-8.29-.49-12.44-.65l-6.23-.23c-2.07,0-4.15-.11-6.23-.11,2.06.25,4.13.44,6.2.66l6.2.55c4.14.36,8.29.64,12.43.91s8.29.49,12.44.65S442.49,215.41,446.65,215.43Z" style="fill:#263238"/><path d="M434.32,152.25c-3.64,2.13-7.21,4.37-10.77,6.62s-7.08,4.56-10.59,6.88-7,4.68-10.46,7.1l-5.17,3.62c-1.7,1.25-3.43,2.46-5.11,3.73,1.82-1.06,3.61-2.18,5.42-3.26l5.35-3.36c3.56-2.25,7.08-4.56,10.59-6.88s7-4.69,10.46-7.1S430.94,154.77,434.32,152.25Z" style="fill:#263238"/><path d="M395.9,196.25c4.85-.47,9.68-1.06,14.5-1.67s9.64-1.32,14.46-2,9.62-1.44,14.41-2.23l7.2-1.21c2.39-.44,4.79-.85,7.18-1.33-2.43.23-4.84.52-7.26.78l-7.24.89c-4.83.61-9.64,1.32-14.46,2s-9.62,1.44-14.41,2.24S400.68,195.32,395.9,196.25Z" style="fill:#263238"/><path d="M191.94,263.31c-15.14,24.79-40.76,78.3-31,97.75,9.39,18.73,104.15-32.64,116.14-42,5.23-4.06-19.22-52.16-25.18-48.34-8,5.09-46.67,36.63-47.52,36.79-1.8.35,3.58-17.47,7.22-39.55C216.88,235.85,202.83,245.49,191.94,263.31Z" style="fill: rgb(255, 196, 192);"/><path d="M315.22,251.1c3.55,4.19.53,9,.53,9a11.72,11.72,0,0,1,6.3,4.86c2.4,4.19-3.11,9.78-3.11,9.78a14.35,14.35,0,0,1,5.82,6.18c1.89,4.24-2.86,10.67-2.86,10.67a12.62,12.62,0,0,1,1.7,8.66c-1.64,8-13.24,12.37-20.64,15.11-11,4.08-30.9,3.93-35.37,4.6l-18.53-47.13s29.43-22.06,38.57-24.15C295.32,246.91,311.23,246.41,315.22,251.1Z" style="fill: rgb(255, 196, 192);"/><path d="M315.13,259.46c-8.63-.09-16.82,2.38-25.13,4.38a.14.14,0,0,0,.07.28c8.24-2.08,16.79-2.5,25.1-4.25A.21.21,0,0,0,315.13,259.46Z" style="fill:#263238"/><path d="M318.54,274.17a22.77,22.77,0,0,0-5.74,1.26c-2,.59-4,1.22-6,1.87-4,1.31-7.9,2.7-11.79,4.22-.17.06-.12.34.07.28,3.95-1.29,7.92-2.53,11.93-3.66q3-.84,6-1.65a26.05,26.05,0,0,0,5.62-1.77A.3.3,0,0,0,318.54,274.17Z" style="fill:#263238"/><path d="M321.73,291.63c-1.7,0-3.53.86-5.11,1.41-1.8.64-3.59,1.26-5.39,1.87-3.6,1.23-7.21,2.46-10.85,3.56a.15.15,0,0,0,.08.28c3.7-1.1,7.42-2.15,11.12-3.28,1.81-.55,3.62-1.12,5.43-1.69,1.54-.49,3.52-.93,4.79-2A.11.11,0,0,0,321.73,291.63Z" style="fill:#263238"/><path d="M228.47,345.66c-6.13,3-12.32,5.86-18.65,8.43S197.16,359,190.71,361c-3.62,1.15-7.27,2.26-11,3.22-.1,0,0,.18.05.16a155.58,155.58,0,0,0,19.79-5.17q4.83-1.65,9.56-3.61c3.11-1.29,6.23-2.62,9.23-4.16,3.44-1.77,6.88-3.59,10.19-5.6A.1.1,0,0,0,228.47,345.66Z" style="fill:#263238"/><path d="M296,317.11c-7.33,2-19,1.45-19.11,1.53-2.21,1.95-11.32,7.85-13.64,9.16-.09.05,0,.18.09.14,5-2.29,11.28-5.7,13.92-8.23,10.37.36,15.55-1.43,18.78-2.37C296.21,317.27,296.18,317.05,296,317.11Z" style="fill:#263238"/><path d="M160.43,303.66l46.57,1.6s6.68-33.8,6.34-52c-.19-10.19-6.13-9.75-12.76-3.36C177.38,272.28,160.43,303.66,160.43,303.66Z" style="fill:#F05A26"/><path d="M191.17,259.81a1.83,1.83,0,0,1-.18.46,3.62,3.62,0,0,1-.76.89,6.34,6.34,0,0,1-.51.4h-.08Zm16.93-.9a.69.69,0,0,0-.6-.34.93.93,0,0,0-.83.58.92.92,0,0,0-.82-.58.67.67,0,0,0-.6.34,1.4,1.4,0,0,0,.09,1.35,4.53,4.53,0,0,0,1.27,1.3h.13a6.34,6.34,0,0,0,.51-.4,3.88,3.88,0,0,0,.76-.89A1.45,1.45,0,0,0,208.1,258.91Zm-34.64,23.82a2.33,2.33,0,0,0,.52-.65,1,1,0,0,0,.1-.24C173.88,282.14,173.67,282.44,173.46,282.73Zm17.62-2a.67.67,0,0,0-.6-.34.92.92,0,0,0-.82.58.93.93,0,0,0-.83-.58.69.69,0,0,0-.6.34,1.43,1.43,0,0,0,.09,1.35,4.44,4.44,0,0,0,1.27,1.29h.14a5.75,5.75,0,0,0,.5-.39,3.49,3.49,0,0,0,.76-.9A1.4,1.4,0,0,0,191.08,280.73Zm17,0a.69.69,0,0,0-.6-.34.93.93,0,0,0-.83.58.92.92,0,0,0-.82-.58.67.67,0,0,0-.6.34,1.4,1.4,0,0,0,.09,1.35,4.44,4.44,0,0,0,1.27,1.29h.13a5.1,5.1,0,0,0,.51-.39,3.94,3.94,0,0,0,.76-.9A1.43,1.43,0,0,0,208.1,280.73ZM181,272.34l.12.09h.14a5.36,5.36,0,0,0,.51-.41,3.26,3.26,0,0,0,.75-.89,1.67,1.67,0,0,0,.21-1C182.09,270.84,181.52,271.6,181,272.34Zm18.63-2.56a.68.68,0,0,0-.6-.34.92.92,0,0,0-.82.58.94.94,0,0,0-.83-.58.68.68,0,0,0-.6.34,1.43,1.43,0,0,0,.09,1.35,4.53,4.53,0,0,0,1.27,1.3h.13s.24-.17.51-.4a3.49,3.49,0,0,0,.76-.9A1.4,1.4,0,0,0,199.59,269.78Zm-25.53,32.76a.67.67,0,0,0-.59-.34.94.94,0,0,0-.83.58.91.91,0,0,0-.82-.58.7.7,0,0,0-.6.34,1.42,1.42,0,0,0,.08,1.35l.09.14,2.46.09a2.53,2.53,0,0,0,.13-.22A1.42,1.42,0,0,0,174.06,302.54Zm17,0a.69.69,0,0,0-.6-.34.88.88,0,0,1-1.65,0,.7.7,0,0,0-.6.34,1.43,1.43,0,0,0,.09,1.35,3.35,3.35,0,0,0,.6.75l1.43.05a3.76,3.76,0,0,0,.64-.79A1.42,1.42,0,0,0,191.08,302.54Zm16.42-.34a.88.88,0,0,1-1.65,0,.69.69,0,0,0-.6.34,1.38,1.38,0,0,0,.09,1.35,4.39,4.39,0,0,0,1.27,1.3h.13l.32-.24c.09-.46.27-1.4.51-2.74Zm-24.93-10.6a.67.67,0,0,0-.59-.35.87.87,0,0,1-1.65,0,.68.68,0,0,0-.6.35,1.4,1.4,0,0,0,.09,1.35,4.59,4.59,0,0,0,1.26,1.29h.14a4.45,4.45,0,0,0,.51-.4,3.68,3.68,0,0,0,.76-.89A1.4,1.4,0,0,0,182.57,291.6Zm17,0a.69.69,0,0,0-.6-.35.93.93,0,0,0-.82.59,1,1,0,0,0-.83-.59.69.69,0,0,0-.6.35,1.43,1.43,0,0,0,.09,1.35,4.44,4.44,0,0,0,1.27,1.29h.13a4.45,4.45,0,0,0,.51-.4,3.29,3.29,0,0,0,.76-.89A1.4,1.4,0,0,0,199.59,291.6Z" style="fill:#fff"/><path d="M205.63,297.87c-7.14-.84-26.59-2.56-39.37-2-.08,0-.1.3,0,.3,10.7,1.16,32.17,1.94,39.36,2.16C205.73,298.31,205.76,297.89,205.63,297.87Z" style="fill:#263238"/><path d="M213.3,270.63q-.8,3-1.51,6.06c0-.24.06-.49.08-.74.29-2.83.56-5.65.77-8.49,0-.07-.11-.08-.12,0-1.38,9.9-5.29,34.91-5.52,37.64-.22,0-2.34.06-2.84,0-.11,0-.1.16,0,.17s3.44.41,3.46.34c1.39-4.82,3.49-23.05,3.94-27.09.72-2.6,1.33-5.22,1.79-7.88C213.36,270.61,213.31,270.6,213.3,270.63Z" style="fill:#263238"/></g></svg>