<svg width="837" height="837" viewBox="0 0 837 837" fill="none" xmlns="http://www.w3.org/2000/svg">
<path d="M836.423 418.99C836.423 531.181 792.222 633.05 720.286 708.13C644.201 787.552 537.08 837 418.413 837C299.746 837 192.625 787.552 116.54 708.13C44.604 633.05 0.403015 531.181 0.403015 418.99C0.403015 188.132 187.555 0.97998 418.413 0.97998C649.271 0.97998 836.423 188.132 836.423 418.99Z" fill="#773B97"/>
<path d="M418.413 441.422C512.726 441.422 589.181 364.967 589.181 270.654C589.181 176.341 512.726 99.886 418.413 99.886C324.1 99.886 247.645 176.341 247.645 270.654C247.645 364.967 324.1 441.422 418.413 441.422Z" fill="#F7DAFA"/>
<path d="M706.124 673.57C702.778 677.354 699.348 681.079 695.848 684.721C625.927 757.716 527.473 803.159 418.412 803.159C309.351 803.159 210.897 757.716 140.976 684.721C137.476 681.079 134.047 677.354 130.7 673.57C130.7 602.574 155.418 518.723 222.575 474.691C252.926 454.791 292.499 456.226 321.794 477.65C344.284 494.098 373.308 504.308 418.412 504.308C463.516 504.308 492.539 494.098 515.03 477.65C544.325 456.226 583.899 454.791 614.249 474.691C681.406 518.723 706.124 602.574 706.124 673.57Z" fill="#F7DAFA"/>
</svg>
