<svg width="512" height="512" viewBox="0 0 512 512" fill="none" xmlns="http://www.w3.org/2000/svg">
<g clip-path="url(#clip0_150_23)">
<path d="M255.354 509.747C233.34 509.843 211.179 507.118 189.442 501.359C141.759 488.728 97.4196 462.752 64.344 425.999C-12.4941 340.618 -21.8596 208.783 43.5119 114.497C92.5174 43.8176 175.702 0.811105 261.756 2.28679C274.343 2.50233 286.913 3.66624 299.317 5.81461C403.402 23.8477 490.078 109.84 508.369 213.973C518.338 270.729 507.523 330.786 479.142 380.868C433.443 461.511 345.646 509.355 255.354 509.747Z" fill="white"/>
<path d="M416.819 434.42C416.986 434.253 417.177 434.109 417.344 433.942C438.805 414.68 456.801 391.641 470.232 365.855C482.563 342.219 491.095 316.337 495.015 288.901C495.11 288.28 495.182 287.682 495.277 287.061C496.161 280.704 496.759 274.228 497.07 267.679C497.118 267.273 497.142 266.843 497.142 266.413C497.189 265.888 497.213 265.362 497.237 264.836C497.261 264.43 497.285 263.976 497.285 263.57C497.429 260.559 497.477 257.524 497.477 254.488C497.477 219.86 490.187 186.951 477.044 157.197C476.9 156.838 476.733 156.48 476.542 156.121C476.446 155.859 476.327 155.596 476.208 155.357C475.969 154.807 475.753 154.305 475.467 153.78C462.634 125.842 444.614 100.772 422.603 79.8608C422.317 79.5741 422.053 79.3115 421.766 79.0478C420.214 77.5902 418.66 76.1325 417.059 74.722C416.748 74.4353 416.437 74.1485 416.102 73.8859C394.713 54.9105 369.907 39.7105 342.71 29.3155C342.327 29.1481 341.921 29.0047 341.491 28.8373C340.104 28.312 338.719 27.8097 337.332 27.3075C336.997 27.1641 336.616 27.0448 336.257 26.9255C311.235 18.1305 284.349 13.3516 256.34 13.3516C249.266 13.3516 242.264 13.6623 235.356 14.2839C234.712 14.308 234.09 14.3791 233.445 14.4513C225.749 15.1681 218.125 16.2438 210.646 17.7014C210.12 17.7736 209.618 17.8929 209.069 18.0122C158.332 28.0493 113.354 54.0513 79.5619 90.5686C78.7258 91.4528 77.8887 92.3611 77.0767 93.2694C75.595 94.8944 74.1373 96.5676 72.7027 98.2638C72.392 98.5746 72.1052 98.9325 71.8426 99.2433C47.1789 128.519 29.3744 163.746 20.8672 202.461C20.6767 203.25 20.5093 203.991 20.3418 204.779C17.5218 218.139 15.8486 231.928 15.3945 246.004C15.3463 246.602 15.3463 247.199 15.3463 247.773C15.2511 250.019 15.2271 252.242 15.2271 254.488C15.2271 265.673 15.992 276.666 17.4737 287.469C17.5218 287.947 17.593 288.448 17.6651 288.951C21.4175 315.143 29.3754 339.95 40.823 362.702C48.5554 378.094 57.9649 392.641 68.797 406.033C79.7323 419.555 92.1614 431.144 105.325 442.427C105.612 442.666 105.947 442.93 106.258 443.168C106.496 443.36 106.712 443.527 106.926 443.717C108.91 445.271 110.893 446.8 112.901 448.282C115.339 450.098 117.825 451.867 120.334 453.587C121.624 454.471 122.915 455.332 124.205 456.169L196.218 458.263L256.608 488.242L351.005 440.984L416.819 434.42Z" fill="#773B97"/>
<path d="M35.7452 215.027C31.0064 225.983 24.3036 238.21 15.3352 247.779C15.3352 247.201 15.3352 246.6 15.3813 245.999C23.8174 236.707 30.1512 225.035 34.6816 214.565C43.1407 195.033 49.5437 174.3 55.7152 154.261C60.7538 137.942 65.9548 121.069 72.2645 104.912C73.8134 100.913 75.4314 97.0308 77.0725 93.2634C77.8816 92.3621 78.7137 91.4608 79.5688 90.5586C77.3964 95.2974 75.3162 100.221 73.3282 105.329C67.0645 121.462 61.8635 138.312 56.8249 154.607C50.6314 174.67 44.2284 195.426 35.7452 215.027Z" fill="white"/>
<path d="M221.05 27.3184C217.144 24.1515 213.191 20.9385 209.077 18.0031C209.608 17.8879 210.116 17.7716 210.649 17.7024C214.439 20.4763 218.114 23.4578 221.766 26.4162C227.869 31.3625 234.155 36.4473 240.812 40.4924C271.854 59.3535 315.377 53.8518 341.496 28.8432C341.912 29.0046 342.328 29.144 342.721 29.3054C316.302 54.9615 271.854 60.6939 240.21 41.4869C233.485 37.3966 227.152 32.2648 221.05 27.3184Z" fill="white"/>
<path d="M422.602 79.8567C411.693 92.7078 395.882 103.363 376.306 110.921C359.848 117.3 342.306 121.161 325.339 124.882C321.086 125.807 316.833 126.755 312.603 127.725C215.71 149.938 127.23 192.791 56.7557 251.639C41.4775 264.421 28.5572 276.718 17.6699 288.944C17.6008 288.459 17.5306 287.951 17.4614 287.465C28.2324 275.423 40.9682 263.287 55.9918 250.76C126.628 191.773 215.27 148.851 312.348 126.592C316.577 125.622 320.831 124.698 325.083 123.749C342.003 120.028 359.501 116.191 375.887 109.858C395.303 102.346 410.974 91.7825 421.768 79.0466C422.048 79.3023 422.325 79.579 422.602 79.8567Z" fill="white"/>
<path d="M76.796 343.794C72.7739 357.685 70.9714 372.431 69.2611 386.693C68.5674 392.356 67.8747 398.088 67.0185 403.797C66.6716 403.38 66.3478 402.964 66.0481 402.548C66.811 397.209 67.4807 391.847 68.1052 386.553C69.8386 372.246 71.619 357.453 75.6862 343.47C81.8115 322.228 98.1985 300.455 119.603 302.858C126.722 303.644 133.194 307.111 139.458 310.463C145.491 313.676 151.731 317.005 158.48 317.883C175.376 320.055 190.793 305.841 197.265 290.678C202.165 279.213 203.76 266.546 205.285 254.273C205.863 249.673 206.464 244.934 207.227 240.289C210.902 217.915 218.623 200.44 230.179 188.375C244.718 173.212 265.914 167.341 282.902 173.766C298.18 179.522 307.726 193.414 316.949 206.842C321.734 213.8 326.68 220.988 332.366 227.021C346.603 242.114 367.961 250.25 390.936 249.371C413.912 248.47 434.552 238.716 447.588 222.582C459.885 207.304 465.778 188.397 471.695 167.04L472.019 165.93C473.152 161.885 474.261 157.841 475.463 153.772C475.74 154.304 475.971 154.812 476.202 155.344C475.14 158.973 474.122 162.603 473.129 166.232L472.828 167.341C466.864 188.837 460.924 207.86 448.489 223.3C435.245 239.688 414.281 249.627 390.981 250.528C367.706 251.43 345.979 243.155 331.533 227.831C325.777 221.705 320.808 214.471 316 207.491C306.431 193.599 297.417 180.494 282.508 174.854C265.936 168.591 245.225 174.346 231.01 189.185C219.615 201.066 212.011 218.332 208.359 240.475C207.596 245.098 207.019 249.837 206.44 254.413C204.891 266.756 203.296 279.515 198.327 291.141C191.901 306.212 176.623 321.373 158.317 319.04C151.359 318.138 145.027 314.741 138.901 311.482C132.753 308.176 126.374 304.779 119.463 303.993C98.6616 301.68 82.7829 323.015 76.796 343.794Z" fill="white"/>
<path d="M497.145 266.408C497.145 266.847 497.122 267.263 497.075 267.679C462.451 284.206 424.22 291.625 387.631 297.034C379.009 298.305 370.226 299.507 361.743 300.663C327.419 305.378 291.917 310.232 258.494 321.003C225.534 331.612 194.908 347.676 167.471 368.802C145.93 385.398 120.134 410.522 106.266 443.159C105.943 442.928 105.619 442.674 105.319 442.419C119.326 409.69 145.191 384.519 166.779 367.9C194.308 346.681 225.048 330.548 258.148 319.893C291.663 309.099 327.212 304.222 361.583 299.53C370.066 298.351 378.849 297.149 387.47 295.878C424.174 290.447 462.474 283.028 497.145 266.408Z" fill="white"/>
<path d="M416.819 434.42C416.986 434.253 417.177 434.109 417.344 433.942C438.805 414.68 456.801 391.641 470.232 365.855C482.563 342.219 491.095 316.337 495.015 288.901C487.391 285.77 479.959 282.449 474.414 277.119C474.103 276.808 473.817 276.521 473.53 276.211C472.287 274.92 471.14 273.486 470.112 271.933C458.808 254.558 469.491 228.103 455.701 212.784C455.582 212.641 455.463 212.497 455.319 212.354C455.176 212.186 455.033 212.043 454.865 211.9C439.618 196.509 409.577 206.619 393.805 191.491C385.679 183.676 384.388 172.133 382.548 160.71C381.735 155.572 380.804 150.457 379.107 145.701C374.805 133.704 365.7 124.574 354.611 117.931C354.132 117.644 353.678 117.357 353.201 117.118C345.554 112.673 337.046 109.423 328.561 107.176C328.561 107.176 328.537 107.176 328.514 107.152C328.299 107.104 328.131 107.033 327.917 106.984C327.749 106.936 327.582 106.889 327.39 106.865C313.004 103.185 298.091 101.727 283.25 102.372C280.454 102.467 277.657 102.659 274.861 102.945C255.097 104.809 235.667 110.378 218.007 119.268C202.712 126.915 188.898 135.926 180.032 150.432C179.386 151.484 178.741 152.535 178.144 153.587C178.12 153.635 178.072 153.706 178.049 153.778C174.727 159.49 171.907 165.226 169.398 171.057C169.398 171.081 169.373 171.105 169.373 171.129C168.251 173.686 167.223 176.244 166.195 178.872C166.004 179.397 165.813 179.924 165.621 180.473C163.877 185.086 162.276 189.818 160.698 194.741C156.731 207.121 152.262 220.145 143.969 230.278L143.945 230.302C141.197 233.624 138.066 236.611 134.385 239.168C124.205 246.266 111.491 248.775 100.807 255.061C85.2732 264.214 75.1158 281.636 74.8291 299.512C74.5905 315.07 81.1148 331.727 73.9208 345.565C68.0652 356.845 55.2662 361.959 42.8862 366.715C50.6406 382.009 60.5614 396.321 71.4767 409.508C82.399 422.703 94.6968 434.74 108.119 445.395C108.723 445.875 109.331 446.345 109.936 446.823C111.896 448.377 113.903 449.882 115.911 451.387C118.373 453.18 120.858 454.948 123.391 456.646H191.529L267.74 482.92L386.657 439.446L416.819 434.42Z" fill="#1B1B1B"/>
<path d="M406.184 441.401C405.874 441.639 405.539 441.903 405.228 442.141C403.436 443.551 401.643 444.937 399.779 446.276C359.701 476.029 310.088 493.595 256.34 493.595C221.735 493.595 188.874 486.33 159.121 473.186C155.56 471.609 152.046 469.96 148.557 468.191C148.533 468.191 148.509 468.167 148.485 468.167C146.621 466.997 144.757 465.802 142.917 464.607C158.738 447.686 185.959 431.507 207.563 419.821C211.052 417.909 214.422 416.116 217.553 414.443C226.778 409.568 234.09 405.888 237.627 403.712C245.023 399.165 246.248 387.807 246.9 380.098C247.432 373.828 248.616 367.482 248.477 361.19C248.346 355.268 246.04 348.903 246.04 343.011C246.016 342.867 246.016 342.795 246.016 342.795C246.016 342.795 308.54 341.127 308.702 341.122C308.424 341.129 308.568 358.214 308.671 359.472C309.569 370.558 311.23 381.854 315.417 392.097C318.88 400.568 331.024 404.07 345.291 408.277C346.63 408.659 347.992 409.042 349.354 409.448C360.778 412.793 373.42 416.761 384.82 423.667C393.04 428.639 400.209 434.971 406.184 441.401Z" fill="#D3542B"/>
<path d="M309.131 357.571C301.218 364.406 290.784 368.617 280.24 368.919C271.779 369.158 257.467 365.968 247.208 359.675C246.879 350.084 246.024 342.793 246.024 342.793L308.714 341.122C308.714 341.122 308.604 348.284 309.131 357.571Z" fill="#331510"/>
<path d="M379.268 194.66C379.268 199.212 378.943 203.696 378.385 208.088C378.246 214.871 378.06 222.551 377.781 230.598C377.386 242.072 376.829 254.305 376.016 265.778C374.878 282.035 373.275 296.796 370.975 305.902C368.699 314.915 363.938 322.25 357.713 328.136H357.69C344.66 340.575 325.242 346.83 308.821 349.589H308.798C306.521 349.957 304.315 350.279 302.178 350.531C290.031 351.957 268.407 353.521 246.829 352.026H246.806C224.207 350.439 201.653 345.496 190.109 333.494C188.158 331.448 186.37 328.849 184.767 325.768C177.938 312.708 174.105 291.324 171.969 270.469C170.854 259.616 170.227 248.901 169.833 239.589C169.136 222.551 169.344 210.203 169.344 210.203L169.925 210.134C169.158 205.076 168.763 199.926 168.763 194.66C168.763 137.107 215.891 90.4541 274.004 90.4541H275.003C277.65 90.4772 280.275 90.6145 282.853 90.822C332.442 94.9153 372.231 133.015 378.409 181.485L378.688 181.439C378.688 181.439 378.688 182.197 378.688 183.577C379.059 187.209 379.268 190.911 379.268 194.66Z" fill="#D3542B"/>
<path d="M416.819 434.42C415.982 433.99 415.122 433.56 414.262 433.154C377.506 415.541 350.214 409.685 350.214 409.685C350.214 409.685 352.986 391.283 341.132 381.103C329.254 370.923 310.709 375.654 310.709 375.654L312.453 385.094C270.703 403.591 246.063 388.846 246.063 388.846L246.469 384.496L246.637 382.943L246.852 380.648L246.9 380.098L247.044 378.76H247.02C210.383 376.538 216.191 411.477 216.883 415.181C216.907 415.205 216.907 415.229 216.907 415.253C216.955 415.445 216.98 415.54 216.98 415.54C216.98 415.54 154.532 440.969 127.623 454.28C126.428 454.877 125.304 455.499 124.206 456.168C123.919 456.311 123.655 456.478 123.393 456.646C123.393 456.646 270.105 559.043 416.819 434.42Z" fill="#FFC17D"/>
<path d="M274.683 439.446C259.573 439.446 245.125 436.221 232.895 430.118C224.587 425.97 219.184 421.172 216.374 415.447C216.234 415.161 216.351 414.814 216.638 414.674C216.917 414.534 217.27 414.651 217.411 414.938C220.106 420.426 225.338 425.054 233.414 429.083C245.482 435.107 259.753 438.29 274.683 438.29C274.709 438.29 274.732 438.29 274.76 438.29C288.072 438.281 302.204 435.793 316.76 430.898C332.786 425.506 343.335 418.78 349.959 409.731C350.15 409.47 350.512 409.417 350.766 409.604C351.025 409.794 351.081 410.155 350.892 410.411C344.119 419.663 333.391 426.521 317.129 431.991C302.453 436.928 288.199 439.435 274.76 439.445C274.734 439.446 274.708 439.446 274.683 439.446Z" fill="#FADED3"/>
<path d="M278.791 114.465C278.339 115.183 277.887 115.877 277.412 116.502C269.823 126.569 256.716 130.78 244.821 135.524C232.95 140.291 220.366 147.488 217.155 159.59C215.823 164.612 216.299 170.003 214.705 174.956C212.397 182.176 205.451 187.776 197.743 188.655C194.27 189.049 190.678 188.586 187.323 189.488C179.854 191.478 175.858 199.577 175.025 207.075C174.216 214.573 175.572 222.209 174.288 229.637C173.455 234.519 170.909 239.518 167.08 242.549C166.366 225.403 166.581 212.976 166.581 212.976L167.175 212.906C166.39 207.816 165.986 202.632 165.986 197.332C165.986 139.411 214.253 92.4583 273.773 92.4583H274.796C277.508 92.4813 280.196 92.6207 282.836 92.8282C284.928 99.6552 282.407 108.565 278.791 114.465Z" fill="#1B1B1B"/>
<path d="M381.056 197.949C381.056 202.557 380.725 207.097 380.158 211.543C380.017 218.41 379.827 226.184 379.544 234.331C379.521 234.331 379.473 234.308 379.45 234.285C371.725 229.699 366.339 221.483 365.252 212.661C364.685 207.912 365.299 203.048 364.733 198.299C364.166 193.527 362.063 188.522 357.74 186.311C354.149 184.495 349.898 184.985 345.906 184.565C335.087 183.472 325.472 174.905 323.251 164.408C321.55 156.285 323.558 146.695 317.936 140.526C312.833 134.916 304.022 135.126 296.864 132.496C290.131 130.006 283.304 122.906 278.981 114.597C275.178 107.381 273.288 99.2341 275.012 92.4602C277.705 92.4833 280.375 92.6236 282.996 92.8321C333.431 96.9755 373.898 135.545 380.181 184.613L380.465 184.566C380.465 184.566 380.465 185.334 380.465 186.731C380.843 190.407 381.056 194.154 381.056 197.949Z" fill="#1B1B1B"/>
<path d="M137.915 235.505C137.915 235.505 150.17 226.112 166.776 205.369C183.38 184.626 197.218 158.795 246.242 151.751C295.265 144.706 340.731 142.749 382.638 160.752C382.638 160.752 415.847 158.012 407.545 115.353C399.243 72.6929 362.475 64.4733 331.242 58.9946C298.682 53.2824 264.042 58.6378 231.686 65.3946C208.327 70.2728 183.846 76.5856 167.013 93.3445C153.242 107.056 146.088 126.42 131.53 139.31C124.454 145.575 115.939 150.017 108.452 155.795C93.2781 167.503 82.2937 187.296 87.9308 205.506C90.9974 215.411 98.6295 223.526 107.672 228.738C116.716 233.95 127.532 234.217 137.915 235.505Z" fill="#FBBC2A"/>
<path d="M258.133 64.0903C257.241 54.2658 257.585 44.3309 259.155 34.5896C259.374 33.2282 260.065 31.5028 261.453 31.6231C262.462 31.7104 263.048 32.776 263.392 33.7204C264.604 37.0407 265.115 40.5645 265.618 44.0592C266.542 50.4703 267.467 56.8803 268.391 63.2913C264.92 63.2221 261.331 62.751 258.133 64.0903Z" fill="#FBBC2A"/>
<g opacity="0.49">
<path d="M232.404 293.473C232.404 312.511 216.819 327.917 197.61 327.917C193.058 327.917 188.738 327.067 184.766 325.48C177.937 312.419 174.104 291.036 171.968 270.181C178.355 263.352 187.484 259.052 197.61 259.052C216.819 259.052 232.404 274.457 232.404 293.473Z" fill="#FF5E5E"/>
<g opacity="0.6">
<path d="M376.016 265.972C374.879 282.229 373.276 296.99 370.976 306.095C368.699 315.109 363.938 322.443 357.714 328.33H357.691C357.063 328.376 356.413 328.399 355.763 328.399C336.531 328.399 320.969 312.994 320.969 293.955C320.969 274.939 336.531 259.534 355.763 259.534C363.312 259.534 370.326 261.903 376.016 265.972Z" fill="#FF5E5E"/>
</g>
</g>
<path d="M233.24 238.503C233.24 244.419 228.396 249.215 222.42 249.215C216.444 249.215 211.6 244.42 211.6 238.503C211.6 232.587 216.444 227.792 222.42 227.792C228.396 227.792 233.24 232.587 233.24 238.503Z" fill="#331510"/>
<path d="M330.993 236.287C330.993 242.202 326.149 246.998 320.173 246.998C314.197 246.998 309.353 242.202 309.353 236.287C309.353 230.371 314.197 225.576 320.173 225.576C326.148 225.576 330.993 230.372 330.993 236.287Z" fill="#331510"/>
<path d="M275.089 272.434C274.034 272.434 272.982 272.305 271.952 272.042C270.495 271.671 269.128 271.048 267.805 270.446C265.879 269.57 264.056 268.74 262.139 268.74C262.122 268.74 262.108 268.74 262.094 268.74C261.266 268.746 260.391 268.899 259.462 269.063C257.49 269.411 255.256 269.803 253.341 268.557C251.713 267.497 250.794 265.422 250.944 263.143C251.067 261.255 251.845 259.512 252.528 257.975C252.776 257.424 253.42 257.179 253.968 257.422C254.518 257.668 254.766 258.312 254.521 258.861C253.88 260.299 253.217 261.785 253.119 263.285C253.024 264.757 253.576 266.109 254.53 266.73C255.723 267.51 257.286 267.232 259.084 266.915C260.059 266.743 261.068 266.565 262.08 266.559C262.099 266.558 262.117 266.558 262.139 266.558C264.53 266.558 266.655 267.526 268.708 268.46C270.001 269.05 271.221 269.605 272.493 269.929C275.135 270.602 278.129 270.18 280.482 268.792C281.259 268.332 281.988 267.772 282.755 267.178C284.013 266.205 285.315 265.201 286.911 264.624C288.265 264.134 289.681 264.006 291.054 263.883C292.788 263.725 294.424 263.577 295.672 262.712C296.55 262.102 297.14 261.07 297.292 259.878C297.444 258.692 297.134 257.552 296.44 256.75C296.048 256.295 296.097 255.606 296.555 255.212C297.01 254.82 297.695 254.869 298.092 255.326C299.187 256.594 299.684 258.355 299.456 260.152C299.227 261.958 298.301 263.544 296.914 264.504C295.194 265.697 293.189 265.878 291.25 266.054C289.96 266.17 288.741 266.282 287.654 266.675C286.378 267.136 285.266 267.994 284.088 268.903C283.299 269.513 282.485 270.141 281.589 270.67C279.621 271.834 277.36 272.434 275.089 272.434Z" fill="#331510"/>
<path d="M242.474 295.743C242.474 295.743 252.549 296.021 258.424 291.035C264.301 286.048 265.979 280.508 278.012 280.232C290.044 279.955 294.801 291.866 300.678 292.697C306.554 293.528 310.471 292.697 310.471 292.697C310.471 292.697 289.205 306.824 242.474 295.743Z" fill="#FF8476"/>
<path d="M243.943 295.789C253.841 299.962 259.691 311.224 270.042 314.128C274.714 315.439 279.72 314.831 284.442 313.712C286.36 313.259 288.271 312.718 290.031 311.839C297.778 307.977 301.047 298.6 308.012 293.485C295.849 295.417 283.555 295.415 271.236 295.501C262.552 295.56 252.627 295.729 243.943 295.789Z" fill="#FF8476"/>
<path d="M273.889 299.76C272.866 299.76 271.852 299.739 270.843 299.694C266.091 299.481 261.311 298.892 256.691 298.322C252.208 297.769 247.57 297.198 242.994 296.976C242.544 296.954 242.196 296.571 242.217 296.12C242.238 295.671 242.544 295.306 243.073 295.343C247.71 295.569 252.378 296.144 256.889 296.7C261.483 297.266 266.23 297.851 270.918 298.061C283.785 298.642 298.04 295.276 310.256 291.909C310.688 291.789 311.143 292.045 311.261 292.48C311.381 292.915 311.126 293.365 310.69 293.486C299.3 296.625 286.168 299.76 273.889 299.76Z" fill="#331510"/>
<path d="M241.108 200.764C223.595 201.878 206.697 203.842 189.458 207.087C194.957 200.825 203.092 197.409 211.251 195.515C219.412 193.621 227.831 193.049 236.034 191.348C237.8 194.317 240.091 197.469 241.108 200.764Z" fill="#331510"/>
<path d="M302.527 199.981C320.04 201.095 336.938 203.059 354.178 206.304C348.68 200.041 340.544 196.626 332.384 194.732C324.224 192.838 315.805 192.266 307.601 190.565C305.836 193.534 303.544 196.687 302.527 199.981Z" fill="#331510"/>
</g>
<defs>
<clipPath id="clip0_150_23">
<rect width="512" height="512" fill="white"/>
</clipPath>
</defs>
</svg>
