<svg width="453" height="384" viewBox="0 0 453 384" fill="none" xmlns="http://www.w3.org/2000/svg">
<path opacity="0.5" d="M231.393 383.197C353.624 383.197 452.711 369.455 452.711 352.504C452.711 335.553 353.624 321.811 231.393 321.811C109.162 321.811 10.075 335.553 10.075 352.504C10.075 369.455 109.162 383.197 231.393 383.197Z" fill="#DEDEDE"/>
<path d="M191.572 297.395C191.615 294.243 191.49 289.875 190.738 284.745C190.104 280.424 188.08 266.621 180.802 256.19C169.802 240.425 157.332 247.454 144.55 231.155C137.235 221.827 139.292 216.939 130.926 209.472C123.536 202.876 115.603 200.447 107.15 199.057C85.76 195.539 50.863 198.839 50.863 198.839C53.809 232.663 65.179 246.648 74.991 253.174C88.761 262.332 99.353 256.722 111.626 267.684C127.603 281.954 117.115 298.123 132.016 312.97C132.016 312.97 138.539 319.47 189.162 329.091L191.572 297.395Z" fill="#F5F5F5"/>
<path d="M189.162 329.091C189.162 329.091 150.055 262.533 135.158 249.489C120.261 236.445 50.863 198.839 50.863 198.839" stroke="#D6D6D6" stroke-width="0.4657" stroke-miterlimit="10" stroke-linecap="round" stroke-linejoin="round"/>
<path d="M101.082 227.223L57.399 229.668" stroke="#D6D6D6" stroke-width="0.4657" stroke-miterlimit="10" stroke-linecap="round" stroke-linejoin="round"/>
<path d="M110.106 232.629L113.005 200.233" stroke="#D6D6D6" stroke-width="0.4657" stroke-miterlimit="10" stroke-linecap="round" stroke-linejoin="round"/>
<path d="M129.968 245.464L92.16 259.433" stroke="#D6D6D6" stroke-width="0.4657" stroke-miterlimit="10" stroke-linecap="round" stroke-linejoin="round"/>
<path d="M145.964 262.067L150.829 237.506" stroke="#D6D6D6" stroke-width="0.4657" stroke-miterlimit="10" stroke-linecap="round" stroke-linejoin="round"/>
<path d="M158.165 279.469L121.539 286.159" stroke="#D6D6D6" stroke-width="0.4657" stroke-miterlimit="10" stroke-linecap="round" stroke-linejoin="round"/>
<path d="M167.719 294.139L181.503 257.231" stroke="#D6D6D6" stroke-width="0.4657" stroke-miterlimit="10" stroke-linecap="round" stroke-linejoin="round"/>
<path d="M176.413 308.008L134.049 314.253" stroke="#D6D6D6" stroke-width="0.4657" stroke-miterlimit="10" stroke-linecap="round" stroke-linejoin="round"/>
<path d="M168.32 302.607C167.155 299.678 165.37 295.689 162.714 291.236C160.477 287.485 153.331 275.504 142.618 268.647C126.427 258.283 117.591 269.545 99.55 259.368C89.225 253.544 89.258 248.241 78.673 244.538C69.323 241.267 61.063 242.055 52.722 244.001C31.611 248.925 0.625 265.312 0.625 265.312C16.275 295.442 32.127 304.02 43.688 306.3C59.913 309.499 67.557 300.268 83.088 305.707C103.306 312.787 99.794 331.737 119.238 339.762C119.238 339.762 127.75 343.275 178.207 332.817L168.32 302.607Z" fill="#F5F5F5"/>
<path d="M178.207 332.817C178.207 332.817 116.63 286.259 97.879 279.899C79.127 273.538 0.625 265.312 0.625 265.312" stroke="#D6D6D6" stroke-width="0.4657" stroke-miterlimit="10" stroke-linecap="round" stroke-linejoin="round"/>
<path d="M57.88 272.348L18.447 291.303" stroke="#D6D6D6" stroke-width="0.4657" stroke-miterlimit="10" stroke-linecap="round" stroke-linejoin="round"/>
<path d="M68.285 273.895L58.582 242.85" stroke="#D6D6D6" stroke-width="0.4657" stroke-miterlimit="10" stroke-linecap="round" stroke-linejoin="round"/>
<path d="M91.545 278.164L61.946 305.523" stroke="#D6D6D6" stroke-width="0.4657" stroke-miterlimit="10" stroke-linecap="round" stroke-linejoin="round"/>
<path d="M112.672 287.393L107.78 262.837" stroke="#D6D6D6" stroke-width="0.4657" stroke-miterlimit="10" stroke-linecap="round" stroke-linejoin="round"/>
<path d="M130.598 298.811L99.309 318.991" stroke="#D6D6D6" stroke-width="0.4657" stroke-miterlimit="10" stroke-linecap="round" stroke-linejoin="round"/>
<path d="M145.033 308.715L143.664 269.341" stroke="#D6D6D6" stroke-width="0.4657" stroke-miterlimit="10" stroke-linecap="round" stroke-linejoin="round"/>
<path d="M158.368 318.208L121.607 340.171" stroke="#D6D6D6" stroke-width="0.4657" stroke-miterlimit="10" stroke-linecap="round" stroke-linejoin="round"/>
<path d="M310.8 333.324H177.463L190.304 245.153H297.959L310.8 333.324Z" fill="#773B97"/>
<path d="M409.915 260.698H78.348C69.924 260.698 63.095 253.869 63.095 245.445V36.563C63.095 28.139 69.924 21.31 78.348 21.31H409.915C418.339 21.31 425.168 28.139 425.168 36.563V245.445C425.168 253.869 418.339 260.698 409.915 260.698Z" fill="#773B97"/>
<path d="M401.129 235.583H87.134C78.71 235.583 71.881 228.754 71.881 220.33V43.77C71.881 35.346 78.71 28.517 87.134 28.517H401.13C409.554 28.517 416.383 35.346 416.383 43.77V220.33C416.383 228.754 409.554 235.583 401.129 235.583Z" fill="#EDCCFF"/>
<path d="M339.061 339.744H149.201V330.572C149.201 323.48 154.95 317.731 162.042 317.731H326.22C333.312 317.731 339.061 323.48 339.061 330.572V339.744Z" fill="#A868CB"/>
<path d="M83.113 235.583H398.782" stroke="#262626" stroke-miterlimit="10" stroke-linecap="round" stroke-linejoin="round"/>
<path d="M157.559 335.158V330.343C157.559 327.43 159.92 325.069 162.833 325.069H305.228" stroke="#262626" stroke-miterlimit="10" stroke-linecap="round" stroke-linejoin="round"/>
<path d="M290.094 267.744L295.138 306.267" stroke="#262626" stroke-miterlimit="10" stroke-linecap="round" stroke-linejoin="round"/>
<path d="M240.947 256.307C245.027 256.307 248.334 253 248.334 248.92C248.334 244.84 245.027 241.533 240.947 241.533C236.867 241.533 233.56 244.84 233.56 248.92C233.56 253 236.867 256.307 240.947 256.307Z" fill="white"/>
<path d="M346.043 42.572H385.253C392.725 42.572 398.782 48.629 398.782 56.101V137.572" stroke="white" stroke-miterlimit="10" stroke-linecap="round" stroke-linejoin="round"/>
<path d="M375.966 68.38C378.231 62.932 380.47 58.717 382.684 55.738C384.897 52.759 387.779 50.383 391.333 48.611C393.41 47.525 395.573 46.746 397.829 46.275C400.081 45.805 402.225 45.206 404.261 44.481C406.293 43.757 408.164 42.773 409.872 41.533C411.579 40.293 412.989 38.335 414.103 35.656C415.983 31.132 416.052 27.449 414.307 24.612C412.562 21.775 409.98 19.645 406.564 18.225C401.667 16.19 397.73 16.152 394.752 18.108C391.771 20.065 389.09 23.256 386.71 27.682L368.84 20.254C370.721 15.73 373.167 11.926 376.181 8.846C379.193 5.767 382.6 3.5 386.4 2.046C390.198 0.593997 394.302 -0.0299997 398.712 0.178C403.118 0.385 407.632 1.449 412.251 3.369C422.225 7.515 429.252 12.82 433.337 19.283C437.418 25.747 437.561 33.549 433.76 42.692C432.531 45.649 431.155 48.108 429.635 50.076C428.112 52.042 426.376 53.676 424.428 54.979C422.478 56.28 420.299 57.352 417.893 58.193C415.484 59.034 412.828 59.824 409.921 60.565C407.235 61.291 404.992 62.065 403.189 62.884C401.385 63.706 399.851 64.721 398.593 65.929C397.331 67.138 396.272 68.514 395.417 70.051C394.559 71.591 393.709 73.378 392.866 75.408L375.966 68.38ZM364.298 94.887L371.842 76.739L390.543 84.513L382.999 102.661L364.298 94.887Z" fill="#3897E9"/>
<path d="M266.994 95.616V80.796C266.994 75.935 263.053 71.994 258.192 71.994H172.164C167.303 71.994 163.362 75.935 163.362 80.796V95.616V194.348C163.362 199.209 167.303 203.15 172.164 203.15H309.731C314.592 203.15 318.533 199.209 318.533 194.348V104.418C318.533 99.557 314.592 95.616 309.731 95.616H266.994Z" fill="#F5F5F5"/>
<path d="M258.279 116.316L240.947 133.648L223.616 116.317L213.157 126.775L230.488 144.107L213.157 161.439L223.616 171.897L240.947 154.566L258.279 171.897L268.738 161.439L251.406 144.107L268.738 126.775L258.279 116.316Z" fill="#D6D6D6"/>
<path d="M53.1571 338.889V327.478H32.1431V358.857L79.5911 359.618V353.913L53.1571 338.889Z" fill="#F7A99C"/>
<path d="M81.2711 359.618V356.913C81.2711 354.147 79.7541 351.605 77.3201 350.291L57.3091 339.491C51.3101 341.13 46.6741 340.9 43.5061 340.363C38.2451 339.47 33.2171 337.08 31.5251 339.079C31.0411 339.651 30.9831 340.401 31.0021 340.917V357.51C31.0021 358.674 31.9461 359.618 33.1101 359.618H81.2711Z" fill="#FFC001"/>
<path d="M81.2711 357.811H31.0011" stroke="#3897E9" stroke-width="0.733" stroke-miterlimit="10" stroke-linecap="round" stroke-linejoin="round"/>
<path d="M70.195 346.673L67.379 350.395" stroke="#3897E9" stroke-width="0.733" stroke-miterlimit="10" stroke-linecap="round" stroke-linejoin="round"/>
<path d="M68.132 345.508L65.316 349.23" stroke="#3897E9" stroke-width="0.733" stroke-miterlimit="10" stroke-linecap="round" stroke-linejoin="round"/>
<path d="M65.977 344.429L63.16 348.15" stroke="#3897E9" stroke-width="0.733" stroke-miterlimit="10" stroke-linecap="round" stroke-linejoin="round"/>
<path d="M62.8031 342.456C59.3931 343.757 53.7651 345.425 46.6601 345.387C39.8051 345.35 34.3641 343.739 31.0021 342.456" stroke="#3897E9" stroke-width="0.733" stroke-miterlimit="10" stroke-linecap="round" stroke-linejoin="round"/>
<path d="M113.062 338.889V327.478H92.048V358.857L139.496 359.618V353.913L113.062 338.889Z" fill="#F7A99C"/>
<path d="M141.176 359.618V356.913C141.176 354.147 139.659 351.605 137.225 350.291L117.214 339.491C111.215 341.13 106.579 340.9 103.411 340.363C98.15 339.47 93.122 337.08 91.43 339.079C90.946 339.651 90.888 340.401 90.907 340.917V357.51C90.907 358.674 91.851 359.618 93.015 359.618H141.176Z" fill="#FFC001"/>
<path d="M141.176 357.811H90.907" stroke="#3897E9" stroke-width="0.733" stroke-miterlimit="10" stroke-linecap="round" stroke-linejoin="round"/>
<path d="M130.1 346.673L127.284 350.395" stroke="#3897E9" stroke-width="0.733" stroke-miterlimit="10" stroke-linecap="round" stroke-linejoin="round"/>
<path d="M128.037 345.508L125.221 349.23" stroke="#3897E9" stroke-width="0.733" stroke-miterlimit="10" stroke-linecap="round" stroke-linejoin="round"/>
<path d="M125.882 344.429L123.066 348.15" stroke="#3897E9" stroke-width="0.733" stroke-miterlimit="10" stroke-linecap="round" stroke-linejoin="round"/>
<path d="M122.708 342.456C119.298 343.757 113.67 345.425 106.565 345.387C99.711 345.35 94.269 343.739 90.907 342.456" stroke="#3897E9" stroke-width="0.733" stroke-miterlimit="10" stroke-linecap="round" stroke-linejoin="round"/>
<path d="M100.986 176.384C100.986 176.384 118.292 231.345 120.954 238.952C123.616 246.559 126.089 257.209 125.518 266.527C124.947 275.846 116.009 333.278 116.009 333.278H89.955C89.955 333.278 88.115 272.612 87.228 267.858C86.341 263.104 78.734 236.211 78.734 236.211C78.734 236.211 76.262 267.668 74.17 276.035C72.078 284.403 55.343 334.229 55.343 334.229H31.001L41.271 176.384H100.986Z" fill="#3897E9"/>
<path d="M140.705 142.88C140.705 142.88 148.968 135.87 151.059 131.284C152.849 127.359 155.351 120.463 156.035 118.557C156.138 118.269 156.44 118.11 156.737 118.18L157.232 118.297C158.765 118.66 159.712 120.2 159.344 121.732L158.519 125.17L167.25 119.436C167.999 118.944 169.008 119.186 169.452 119.965C169.844 120.652 169.657 121.524 169.018 121.989L163.259 126.189L172.826 121.697C173.567 121.349 174.45 121.629 174.856 122.34L174.868 122.361C175.297 123.114 175.035 124.072 174.282 124.501L174.389 124.47C175.22 124.231 176.101 124.634 176.463 125.418C176.883 126.326 176.457 127.4 175.53 127.775L174.921 128.021C175.715 127.773 176.549 128.268 176.711 129.084C176.948 130.275 176.374 131.478 175.297 132.039C172.722 133.379 171.051 133.732 168.604 135.564C166.667 137.013 167.345 137.936 165.279 140.579C162.763 143.798 160.62 143.889 156.286 147.075C154.64 148.285 152.367 150.171 149.965 152.978L140.705 142.88Z" fill="#F7A99C"/>
<path d="M169.591 120.31C169.591 120.31 170.03 121.2 169.196 121.834C168.363 122.468 161.857 127.284 161.857 127.284" stroke="#262626" stroke-width="0.4147" stroke-miterlimit="10" stroke-linecap="round" stroke-linejoin="round"/>
<path d="M174.282 124.501L165.324 128.659" stroke="#262626" stroke-width="0.4147" stroke-miterlimit="10" stroke-linecap="round" stroke-linejoin="round"/>
<path d="M175.204 127.967L166.198 132.112" stroke="#262626" stroke-width="0.4147" stroke-miterlimit="10" stroke-linecap="round" stroke-linejoin="round"/>
<path d="M157.858 118.529C157.858 118.529 159.432 119.525 159.388 120.629C159.344 121.733 157.756 128.825 157.756 128.825" stroke="#262626" stroke-width="0.4147" stroke-miterlimit="10" stroke-linecap="round" stroke-linejoin="round"/>
<path d="M89.956 333.279C89.956 333.279 87.598 271.075 87.414 269.467C87.23 267.859 78.365 234.935 78.365 234.935L79.935 220.383C79.935 220.383 97.82 264.409 97.82 267.313C97.82 270.218 99.807 333.279 99.807 333.279H89.956Z" fill="#1775AF"/>
<path d="M75.186 272.228L81.542 203.485" stroke="#262626" stroke-width="0.4147" stroke-miterlimit="10" stroke-linecap="round" stroke-linejoin="round"/>
<path d="M117.011 328.001H89.755L89.956 333.279H116.01L117.011 328.001Z" fill="#262626"/>
<path d="M56.923 329.515H31.308L31.001 334.23H55.344L56.923 329.515Z" fill="#262626"/>
<path d="M118.597 244.387C122.046 255.244 122.593 267.008 120.165 278.138" stroke="white" stroke-width="0.4147" stroke-miterlimit="10" stroke-linecap="round" stroke-linejoin="round"/>
<path d="M147.574 135.488C147.574 135.488 143.162 138.885 138.136 139.767C132.247 140.801 127.14 137.313 125.769 136.377C122.035 133.827 120.656 130.806 118.187 127.271C110.873 116.801 106.33 110.297 99.97 106.614C96.683 104.71 91.186 102.561 82.52 103.226C80.576 102.529 77.477 103.081 75.401 103.081C73.675 103.081 71.95 103.081 70.224 103.081C66.822 103.489 41.766 106.4 37.506 102.488C35.827 100.946 35.8 99.427 35.8 99.427C35.778 98.171 36.571 96.864 38.647 95.283C43.72 91.42 53.026 88.536 56.143 87.617L54.241 73.413C54.241 73.413 54.241 73.413 50.057 73.413C45.873 73.413 31.039 75.885 23.052 78.676C11.853 82.589 5.85301 85.445 2.89301 91.932C-0.814986 100.061 3.13501 108.798 4.16101 111.068C9.30301 122.441 20.705 127.044 27.592 129.824C33.666 132.276 39.072 133.261 42.83 133.699L39.597 185.427L99.053 188.66H107.982C108.666 180.756 105.246 156.198 105.689 148.176C113.28 158.74 125.854 164.075 137.791 161.781C151.006 159.242 157.652 148.466 158.734 146.647C154.122 137.548 147.574 135.488 147.574 135.488Z" fill="#4450E4"/>
<path d="M73.703 131.741H73.13V107.053H76.875V128.569C76.875 130.321 75.455 131.741 73.703 131.741Z" fill="white"/>
<path d="M108.073 185.932C106.025 186.312 77.882 191.031 57.996 170.034C41.216 152.317 43.2 129.896 43.55 126.58C42.506 142.132 41.461 157.684 40.417 173.236H40.36L39.598 185.426L48.918 185.933L48.912 185.867C62.812 186.967 77.157 187.788 91.926 188.272C97.336 188.449 102.689 188.577 107.984 188.66C108.013 187.75 108.043 186.841 108.073 185.932Z" fill="#3748C4"/>
<path d="M92.3071 84.393C93.3261 79.163 93.1671 75.075 92.8711 72.462C92.6461 70.474 92.3001 68.969 91.2441 67.538C91.0211 67.236 89.2671 64.93 86.2571 64.328C82.6571 63.607 81.7481 66.222 76.6271 66.856C72.2111 67.402 71.3411 65.649 68.3711 66.908C65.1271 68.283 63.5261 71.494 63.0401 72.469C62.8281 72.895 61.7711 75.073 61.6641 78.125C61.5791 80.542 62.1311 82.36 62.3501 83.104C63.2701 86.235 64.3531 90.997 65.6771 98.61C66.3681 98.584 67.0601 98.559 67.7511 98.533C75.9371 93.818 84.1221 89.105 92.3071 84.393Z" fill="#262626"/>
<path d="M74.798 110.115C70.93 110.13 67.783 107.006 67.769 103.139L67.712 88.069L81.718 88.016L81.775 103.086C81.789 106.953 78.666 110.1 74.798 110.115Z" fill="#F7A99C"/>
<path d="M81.7581 98.867L72.6371 94.181C72.7291 94.971 73.2481 98.67 76.5011 101.225C78.5781 102.856 80.7621 103.229 81.7701 103.335L81.7581 98.867Z" fill="#FF7769"/>
<path d="M67.372 83.4C67.328 83.172 66.728 82.828 66.544 82.711C66.233 82.512 65.896 82.353 65.544 82.24C64.861 82.02 64.11 81.969 63.408 82.13C62.012 82.45 60.774 83.623 60.541 85.06C60.406 85.895 60.599 86.758 60.956 87.524C61.494 88.676 62.406 89.644 63.508 90.278C64.421 90.804 65.46 91.102 66.51 91.164C66.72 91.176 68.873 91.127 68.857 91.044C68.361 88.496 67.866 85.948 67.372 83.4Z" fill="#F7A99C"/>
<path d="M65.452 83.546C65.618 84.67 66.606 90.601 71.952 94.791C72.937 95.563 79.483 100.694 85.473 98.19C93.17 94.972 92.33 82.33 92.276 81.645C92.093 79.33 91.552 72.513 85.907 68.876C81.3 65.908 76.307 66.999 75.599 67.166C74.853 67.341 70.1 68.541 67.191 73.201C64.55 77.43 65.181 81.706 65.452 83.546Z" fill="#F7A99C"/>
<path d="M87.9071 81.654C88.0311 82.641 88.7921 83.358 89.6071 83.256C90.4221 83.154 90.9821 82.271 90.8581 81.284C90.7341 80.297 89.9731 79.58 89.1581 79.682C88.3431 79.784 87.7831 80.667 87.9071 81.654Z" fill="#262626"/>
<path d="M79.013 82.771C79.137 83.758 79.898 84.475 80.713 84.373C81.528 84.271 82.088 83.388 81.964 82.401C81.84 81.414 81.079 80.697 80.264 80.799C79.45 80.901 78.889 81.784 79.013 82.771Z" fill="#262626"/>
<path d="M85.222 83.131L86.585 84.973C86.836 85.311 86.742 85.792 86.382 86.011L85.13 86.773" stroke="#262626" stroke-width="0.733" stroke-miterlimit="10" stroke-linecap="round" stroke-linejoin="round"/>
<path d="M76.03 87.42C76.169 88.527 77.18 89.313 78.287 89.173C79.394 89.034 80.18 88.023 80.04 86.916C79.901 85.809 78.89 85.023 77.783 85.163C76.676 85.302 75.891 86.313 76.03 87.42Z" fill="#FF7769"/>
<path d="M66.432 88.464C66.439 88.242 66.457 86.738 65.251 85.653C64.306 84.803 63.206 84.747 62.906 84.742" stroke="#262626" stroke-width="0.733" stroke-miterlimit="10" stroke-linecap="round" stroke-linejoin="round"/>
<path d="M65.3681 85.951C65.3011 85.94 64.4921 85.828 63.9271 86.44C63.4621 86.943 63.5051 87.565 63.5141 87.668" stroke="#262626" stroke-width="0.733" stroke-miterlimit="10" stroke-linecap="round" stroke-linejoin="round"/>
<path d="M65.275 82.165C65.275 82.165 66.27 82.253 67.02 82.998C67.77 83.742 68.036 85.017 68.036 85.017C69.953 84.784 74.344 83.975 78.327 80.518C80.486 78.644 81.804 76.618 82.581 75.157C83.307 75.81 84.546 76.791 86.299 77.547C88.586 78.533 91.443 79.005 91.822 78.237C91.892 78.095 91.815 77.683 91.659 76.86C91.603 76.562 91.544 76.121 91.399 75.699C91.116 74.873 90.748 74.076 90.309 73.321C89.429 71.811 88.258 70.47 86.88 69.395C85.984 68.697 85.001 68.111 83.955 67.666C80.635 66.254 76.025 66.253 72.057 68.369C72.057 68.369 67.627 70.732 65.674 75.356C65.003 76.945 64.834 78.534 64.792 79.085C64.708 80.176 64.831 80.889 64.997 81.437C65.091 81.747 65.196 81.996 65.275 82.165Z" fill="#262626"/>
<path d="M91.227 84.224C91.61 84.176 91.979 84.244 92.307 84.393C92.268 85.478 92.164 86.794 91.925 88.19C91.86 88.205 91.798 88.226 91.731 88.235C90.624 88.374 89.613 87.589 89.474 86.482C89.335 85.375 90.119 84.363 91.227 84.224Z" fill="#FF7769"/>
<path d="M76.397 67.423C75.739 67.167 74.775 66.818 73.588 66.477C70.986 65.731 69.685 65.358 68.501 65.51C65.035 65.955 63.044 70.523 62.209 72.439C61.577 73.889 60.543 76.35 61.091 79.433C61.335 80.805 61.818 81.878 62.202 82.587" stroke="#262626" stroke-width="0.25" stroke-miterlimit="10" stroke-linecap="round" stroke-linejoin="round"/>
<path d="M76.397 67.011C77.569 66.499 78.822 66.084 79.951 65.497C81.136 64.881 82.171 64.08 83.44 63.607C84.773 63.11 86.261 62.911 87.622 63.324C88.795 63.68 89.798 64.464 90.626 65.368C91.741 66.586 92.59 68.056 93.032 69.647C93.884 72.713 93.123 75.908 92.621 78.964" stroke="#262626" stroke-width="0.25" stroke-miterlimit="10" stroke-linecap="round" stroke-linejoin="round"/>
<path d="M86.7261 90.992C86.7261 91.988 85.7561 92.795 84.5601 92.795C83.3631 92.795 82.3931 91.988 82.3931 90.992C82.3931 89.996 83.3631 89.189 84.5601 89.189C85.7561 89.19 86.7261 89.997 86.7261 90.992Z" fill="white"/>
<path d="M54.568 75.85L58.569 73.413C58.569 73.413 59.386 69.888 60.497 69.143C61.608 68.398 67.512 66.105 67.512 66.105L68.372 66.908C68.372 66.908 63.752 71.128 62.795 73.002C61.837 74.876 61.657 80.093 61.657 80.093L57.137 85.937L56.031 86.774L54.568 75.85Z" fill="#F7A99C"/>
<path d="M43.55 128.825L41.446 155.858" stroke="#262626" stroke-width="0.4147" stroke-miterlimit="10" stroke-linecap="round" stroke-linejoin="round"/>
<path d="M104.658 131.035L106.271 160.862" stroke="#262626" stroke-width="0.4147" stroke-miterlimit="10" stroke-linecap="round" stroke-linejoin="round"/>
<path d="M12.289 88.464C11.453 89.129 7.12905 92.706 6.42905 99.025C5.66705 105.909 9.80705 110.621 10.4541 111.333" stroke="white" stroke-width="0.4147" stroke-miterlimit="10" stroke-linecap="round" stroke-linejoin="round"/>
<path d="M115.015 150.162C116.127 151.397 120.451 155.904 127.717 156.886C134.608 157.818 139.749 154.986 141.231 154.098" stroke="white" stroke-width="0.4147" stroke-miterlimit="10" stroke-linecap="round" stroke-linejoin="round"/>
<path d="M303.939 173.845L313.214 168.887L326.972 171.409L333.851 164.071L350.131 168.428L359.189 156.046L375.363 165.96L369.86 130.997L348.518 116.054L299.466 123.774C297.629 124.063 296.375 125.786 296.664 127.623L303.939 173.845Z" fill="#F5F5F5"/>
<path d="M353.503 133.571L369.86 130.997L348.518 116.054L350.987 131.739C351.175 132.94 352.302 133.76 353.503 133.571Z" fill="#D6D6D6"/>
<path d="M348.518 116.053L350.987 131.738C351.176 132.939 352.303 133.759 353.504 133.57L369.861 130.996" stroke="#262626" stroke-width="0.274" stroke-miterlimit="10" stroke-linecap="round" stroke-linejoin="round"/>
<path d="M310.551 219.752C310.84 221.589 312.563 222.843 314.4 222.554L378.657 212.441C380.494 212.152 381.748 210.429 381.459 208.592L375.363 169.858L359.189 159.944L350.131 172.326L333.851 167.969L326.972 175.307L313.214 172.785L303.939 177.743L310.551 219.752Z" fill="#F5F5F5"/>
<path d="M303.952 173.845L313.227 168.887L326.985 171.409L333.864 164.071L350.144 168.428L359.202 156.046L375.376 165.96L369.873 130.997L348.531 116.054L299.479 123.774C297.642 124.063 296.388 125.786 296.677 127.623L303.952 173.845Z" stroke="#262626" stroke-width="0.274" stroke-miterlimit="10" stroke-linecap="round" stroke-linejoin="round"/>
<path d="M310.564 219.752C310.853 221.589 312.576 222.843 314.413 222.554L378.67 212.441C380.507 212.152 381.761 210.429 381.472 208.592L375.376 169.858L359.202 159.944L350.144 172.326L333.864 167.969L326.985 175.307L313.227 172.785L303.952 177.743L310.564 219.752Z" stroke="#262626" stroke-width="0.274" stroke-miterlimit="10" stroke-linecap="round" stroke-linejoin="round"/>
<path d="M55.361 65.097L53.739 66.645L39.391 53.69L43.521 49.751L55.361 65.097Z" fill="#FF7129"/>
<path d="M58.906 62.441L56.701 62.849L51.78 44.155L57.392 43.118L58.906 62.441Z" fill="#FF7129"/>
<path d="M51.26 68.623L51.076 70.858L31.745 70.712L32.214 65.024L51.26 68.623Z" fill="#FF7129"/>
<path d="M282.209 352.06C277.359 347.293 277.291 339.497 282.058 334.647L338.751 276.96L356.315 294.222L299.622 351.908C294.855 356.759 287.059 356.827 282.209 352.06Z" fill="#FF7129"/>
<path opacity="0.2" d="M383.367 299.036C410.865 298.973 433.106 276.63 433.043 249.131C432.979 221.633 410.636 199.393 383.138 199.456C355.64 199.519 333.399 221.862 333.463 249.36C333.526 276.859 355.869 299.099 383.367 299.036Z" fill="#DCF0FF"/>
<path opacity="0.5" d="M336.646 266.806C338.325 271.273 340.665 275.545 343.67 279.47L433.02 248.565C432.953 243.734 432.184 238.914 430.721 234.266L336.646 266.806Z" fill="white"/>
<path opacity="0.5" d="M333.569 252.549C333.755 255.374 334.182 258.184 334.848 260.949L428.521 228.549C427.353 225.994 425.962 223.519 424.34 221.153L333.569 252.549Z" fill="white"/>
<path d="M423.518 208.275C400.884 186.03 364.502 186.346 342.257 208.981C320.012 231.615 320.328 267.997 342.963 290.242C365.597 312.487 401.979 312.171 424.224 289.536C446.469 266.901 446.153 230.519 423.518 208.275ZM350.071 283.009C331.431 264.69 331.171 234.729 349.49 216.088C367.809 197.448 397.77 197.188 416.41 215.507C435.05 233.826 435.31 263.787 416.991 282.428C398.673 301.068 368.711 301.328 350.071 283.009Z" fill="#FF7129"/>
<path d="M342.731 299.529L297.903 345.142" stroke="white" stroke-miterlimit="10" stroke-linecap="round" stroke-linejoin="round"/>
<path d="M387.361 195.925C373.237 194.5 358.594 199.375 348.142 208.981C337.69 218.588 331.601 232.769 331.833 246.963" stroke="white" stroke-miterlimit="10" stroke-linecap="round" stroke-linejoin="round"/>
</svg>
