<svg width="500" height="500" viewBox="0 0 500 500" fill="none" xmlns="http://www.w3.org/2000/svg">
<path d="M259.98 207.863H82.05C73.968 207.863 67.416 201.311 67.416 193.229V77.127C67.416 69.045 73.968 62.492 82.05 62.492H259.98C268.062 62.492 274.614 69.044 274.614 77.127V193.228C274.614 201.311 268.062 207.863 259.98 207.863Z" fill="#EDCCFF"/>
<path d="M274.614 82.395V73.152C274.614 67.265 269.842 62.493 263.955 62.493H78.074C72.187 62.493 67.415 67.265 67.415 73.152V82.395H274.614Z" fill="#773B97"/>
<path d="M80.0601 73.29C80.0601 74.832 78.8101 76.082 77.2681 76.082C75.7261 76.082 74.4761 74.832 74.4761 73.29C74.4761 71.748 75.7261 70.498 77.2681 70.498C78.8101 70.497 80.0601 71.748 80.0601 73.29Z" fill="#F5F5F5"/>
<path d="M90.2471 73.29C90.2471 74.832 88.9971 76.082 87.4551 76.082C85.9131 76.082 84.6631 74.832 84.6631 73.29C84.6631 71.748 85.9131 70.498 87.4551 70.498C88.9971 70.497 90.2471 71.748 90.2471 73.29Z" fill="#F5F5F5"/>
<path d="M100.936 73.29C100.936 74.832 99.6861 76.082 98.1441 76.082C96.6021 76.082 95.3521 74.832 95.3521 73.29C95.3521 71.748 96.6021 70.498 98.1441 70.498C99.6861 70.497 100.936 71.748 100.936 73.29Z" fill="#F5F5F5"/>
<path d="M233.362 76.082H121.486C119.944 76.082 118.694 74.832 118.694 73.29C118.694 71.748 119.944 70.498 121.486 70.498H233.362C234.904 70.498 236.154 71.748 236.154 73.29C236.154 74.832 234.904 76.082 233.362 76.082Z" fill="#F5F5F5"/>
<path d="M80.0601 62.879H265.492C270.53 62.879 274.614 66.963 274.614 72.001V197.205" stroke="#262626" stroke-width="0.4147" stroke-miterlimit="10" stroke-linecap="round" stroke-linejoin="round"/>
<path d="M113.89 120.292C112.719 120.739 112.131 122.051 112.578 123.222L134.051 179.501C134.498 180.672 135.81 181.26 136.981 180.813L177.968 165.175C179.139 164.728 179.727 163.416 179.28 162.245L161.344 115.237L145.177 108.355L113.89 120.292Z" fill="#F5F5F5"/>
<path d="M150.911 119.217L161.344 115.236L145.177 108.354L148.994 118.359C149.287 119.125 150.145 119.509 150.911 119.217Z" fill="#D6D6D6"/>
<path d="M145.178 108.354L148.995 118.359C149.287 119.125 150.145 119.509 150.911 119.217L161.344 115.236" stroke="#262626" stroke-width="0.274" stroke-miterlimit="10" stroke-linecap="round" stroke-linejoin="round"/>
<path d="M144.568 149.718C144.021 148.284 143.69 147.088 143.575 146.13C143.46 145.172 143.579 144.207 143.933 143.237C144.131 142.66 144.4 142.126 144.741 141.634C145.082 141.142 145.38 140.646 145.634 140.145C145.888 139.645 146.065 139.124 146.166 138.585C146.266 138.046 146.182 137.424 145.913 136.719C145.459 135.529 144.813 134.821 143.976 134.597C143.139 134.374 142.271 134.433 141.372 134.776C140.084 135.268 139.334 135.965 139.121 136.867C138.908 137.77 138.973 138.852 139.315 140.113L134.613 141.907C134.159 140.716 133.94 139.561 133.958 138.44C133.976 137.32 134.213 136.282 134.671 135.328C135.128 134.374 135.791 133.522 136.661 132.773C137.53 132.024 138.572 131.417 139.788 130.954C142.413 129.953 144.688 129.697 146.615 130.186C148.542 130.676 149.964 132.124 150.882 134.53C151.179 135.308 151.359 136.018 151.424 136.662C151.488 137.306 151.453 137.925 151.318 138.519C151.183 139.114 150.963 139.706 150.659 140.295C150.355 140.885 149.994 141.509 149.578 142.169C149.201 142.787 148.916 143.334 148.722 143.811C148.528 144.289 148.42 144.755 148.399 145.208C148.377 145.662 148.423 146.111 148.537 146.554C148.65 146.998 148.81 147.488 149.014 148.022L144.568 149.718ZM147.107 156.809L145.285 152.034L150.206 150.156L152.028 154.931L147.107 156.809Z" fill="#D6D6D6"/>
<path d="M113.89 120.292C112.719 120.739 112.131 122.051 112.578 123.222L134.051 179.501C134.498 180.672 135.81 181.26 136.981 180.813L177.968 165.175C179.139 164.728 179.727 163.416 179.28 162.245L161.344 115.237L145.177 108.355L113.89 120.292Z" stroke="#262626" stroke-width="0.274" stroke-miterlimit="10" stroke-linecap="round" stroke-linejoin="round"/>
<path d="M181.633 104.967C180.477 104.482 179.146 105.027 178.662 106.184L155.389 161.742C154.905 162.898 155.449 164.229 156.606 164.713L197.068 181.662C198.225 182.146 199.555 181.602 200.039 180.445L219.478 134.039L212.52 117.905L181.633 104.967Z" fill="#F5F5F5"/>
<path d="M209.179 129.725L219.479 134.039L212.521 117.905L208.384 127.782C208.066 128.538 208.423 129.408 209.179 129.725Z" fill="#D6D6D6"/>
<path d="M212.521 117.905L208.384 127.782C208.067 128.538 208.424 129.408 209.18 129.725L219.48 134.039" stroke="#262626" stroke-width="0.274" stroke-miterlimit="10" stroke-linecap="round" stroke-linejoin="round"/>
<path d="M183.548 147.433C184.141 146.018 184.726 144.923 185.304 144.15C185.882 143.377 186.633 142.761 187.558 142.303C188.099 142.022 188.662 141.821 189.249 141.7C189.835 141.579 190.393 141.425 190.923 141.238C191.452 141.051 191.939 140.797 192.384 140.475C192.829 140.154 193.197 139.646 193.489 138.95C193.981 137.775 194.002 136.817 193.55 136.078C193.098 135.339 192.428 134.783 191.541 134.411C190.269 133.878 189.245 133.866 188.469 134.372C187.692 134.879 186.993 135.707 186.371 136.856L181.729 134.911C182.221 133.736 182.86 132.748 183.646 131.949C184.431 131.15 185.319 130.563 186.309 130.188C187.298 129.813 188.366 129.654 189.512 129.711C190.658 129.768 191.831 130.048 193.031 130.551C195.622 131.636 197.446 133.021 198.503 134.705C199.56 136.389 199.591 138.418 198.597 140.793C198.275 141.561 197.916 142.2 197.519 142.71C197.122 143.22 196.669 143.644 196.162 143.981C195.654 144.318 195.086 144.595 194.46 144.812C193.833 145.029 193.142 145.233 192.385 145.423C191.686 145.61 191.102 145.809 190.632 146.021C190.162 146.233 189.763 146.496 189.435 146.81C189.106 147.124 188.83 147.481 188.606 147.88C188.382 148.28 188.159 148.744 187.939 149.271L183.548 147.433ZM180.494 154.318L182.469 149.604L187.327 151.639L185.352 156.353L180.494 154.318Z" fill="#D6D6D6"/>
<path d="M181.633 104.967C180.477 104.482 179.146 105.027 178.662 106.184L155.389 161.742C154.905 162.898 155.449 164.229 156.606 164.713L197.068 181.662C198.225 182.146 199.555 181.602 200.039 180.445L219.478 134.039L212.52 117.905L181.633 104.967Z" stroke="#262626" stroke-width="0.274" stroke-miterlimit="10" stroke-linecap="round" stroke-linejoin="round"/>
<path d="M202.391 267.475H89.468V395.509H202.391V267.475Z" fill="#F5F5F5"/>
<path d="M204.59 267.475H87.268C84.237 267.475 81.781 265.018 81.781 261.988C81.781 258.958 84.238 256.501 87.268 256.501H204.59C207.62 256.501 210.077 258.958 210.077 261.988C210.077 265.018 207.62 267.475 204.59 267.475Z" fill="#D6D6D6"/>
<path opacity="0.5" d="M193.146 279.668H98.7119V312.591H193.146V279.668Z" fill="#D6D6D6"/>
<path opacity="0.5" d="M193.146 357.49H98.7119V390.413H193.146V357.49Z" fill="#D6D6D6"/>
<path opacity="0.5" d="M193.146 318.579H98.7119V351.502H193.146V318.579Z" fill="#D6D6D6"/>
<path d="M152.075 293.234H139.782V299.026H152.075V293.234Z" fill="#D6D6D6"/>
<path d="M152.075 332.145H139.782V337.937H152.075V332.145Z" fill="#D6D6D6"/>
<path d="M152.075 371.055H139.782V376.847H152.075V371.055Z" fill="#D6D6D6"/>
<path d="M250 475.466C372.839 475.466 472.42 459.328 472.42 439.42C472.42 419.512 372.839 403.374 250 403.374C127.161 403.374 27.5801 419.512 27.5801 439.42C27.5801 459.328 127.161 475.466 250 475.466Z" fill="#DEDEDE"/>
<path d="M419.313 434.438L415.172 434.974L392.889 295.432L405.314 293.823L419.313 434.438Z" fill="#D6D6D6"/>
<path d="M284.683 429.775L288.824 430.311L311.107 290.769L298.682 289.16L284.683 429.775Z" fill="#D6D6D6"/>
<path d="M363.037 433.183L358.896 433.719L336.613 294.177L349.038 292.568L363.037 433.183Z" fill="#D6D6D6"/>
<path d="M407.672 323.374H302.538L306.31 290.482H421.418L418.691 313.399C418.114 318.908 413.181 323.374 407.672 323.374Z" fill="#F5F5F5"/>
<path d="M413.365 313.306H348.592C345.743 313.306 343.715 310.996 344.063 308.147L359.111 185.013C359.459 182.164 362.051 179.854 364.901 179.854H429.674C432.523 179.854 434.551 182.164 434.203 185.013L419.155 308.147C418.806 310.996 416.214 313.306 413.365 313.306Z" fill="#F5F5F5"/>
<path d="M403.008 313.306H338.235C335.386 313.306 333.358 310.996 333.706 308.147L348.754 185.013C349.102 182.164 351.694 179.854 354.544 179.854H419.317C422.166 179.854 424.194 182.164 423.846 185.013L408.798 308.147C408.449 310.996 405.857 313.306 403.008 313.306Z" fill="#D6D6D6"/>
<path d="M315.008 403.918L308.02 387.112L338.971 374.241L358.19 420.458L288.771 450.64L285.276 442.237L315.008 403.918Z" fill="#F7A99C"/>
<path d="M286.297 451.669L284.64 447.685C282.946 443.612 283.623 438.937 286.403 435.512L309.262 407.349C319.102 406.088 325.789 402.911 330.127 400.178C337.329 395.64 343.271 389.04 346.987 390.949C348.05 391.495 348.595 392.564 348.883 393.336L359.046 417.775C359.759 419.49 358.947 421.457 357.233 422.17L286.297 451.669Z" fill="#FFC001"/>
<path d="M285.19 449.008L359.23 418.218" stroke="#3897E9" stroke-width="0.733" stroke-miterlimit="10" stroke-linecap="round" stroke-linejoin="round"/>
<path d="M294.681 425.819L301.108 429.576" stroke="#3897E9" stroke-width="0.733" stroke-miterlimit="10" stroke-linecap="round" stroke-linejoin="round"/>
<path d="M297.006 422.84L303.433 426.597" stroke="#3897E9" stroke-width="0.733" stroke-miterlimit="10" stroke-linecap="round" stroke-linejoin="round"/>
<path d="M299.52 419.93L305.947 423.686" stroke="#3897E9" stroke-width="0.733" stroke-miterlimit="10" stroke-linecap="round" stroke-linejoin="round"/>
<path d="M302.986 415.08C308.805 414.907 318.117 413.917 328.558 409.508C338.631 405.255 345.659 399.549 349.825 395.601" stroke="#3897E9" stroke-width="0.733" stroke-miterlimit="10" stroke-linecap="round" stroke-linejoin="round"/>
<path d="M213.6 417.53L223.504 398.242L248.906 397.936L246.711 449.808L171.015 450.054L171.131 440.954L213.6 417.53Z" fill="#F7A99C"/>
<path d="M168.335 450.02L168.39 445.705C168.446 441.294 170.918 437.269 174.827 435.224L206.965 418.406C216.5 421.142 223.899 420.871 228.964 420.078C237.374 418.761 245.442 415.051 248.1 418.275C248.86 419.197 248.937 420.395 248.897 421.218L248.559 447.684C248.535 449.541 247.011 451.027 245.154 451.003L168.335 450.02Z" fill="#FFC001"/>
<path d="M168.372 447.138L248.553 448.163" stroke="#3897E9" stroke-width="0.733" stroke-miterlimit="10" stroke-linecap="round" stroke-linejoin="round"/>
<path d="M186.266 429.598L190.681 435.591" stroke="#3897E9" stroke-width="0.733" stroke-miterlimit="10" stroke-linecap="round" stroke-linejoin="round"/>
<path d="M189.58 427.782L193.995 433.776" stroke="#3897E9" stroke-width="0.733" stroke-miterlimit="10" stroke-linecap="round" stroke-linejoin="round"/>
<path d="M193.04 426.104L197.456 432.098" stroke="#3897E9" stroke-width="0.733" stroke-miterlimit="10" stroke-linecap="round" stroke-linejoin="round"/>
<path d="M198.143 423.023C203.556 425.167 212.499 427.943 223.832 428.026C234.766 428.106 243.478 425.648 248.866 423.671" stroke="#3897E9" stroke-width="0.733" stroke-miterlimit="10" stroke-linecap="round" stroke-linejoin="round"/>
<path d="M337.134 256.361C337.134 256.361 266.281 277.03 262.612 282.991C258.943 288.953 260.319 302.023 262.612 310.507C264.905 318.991 298.741 403.373 298.741 403.373L347.224 385.258L313.976 298.354L376.345 266.711L337.134 256.361Z" fill="#FF7129"/>
<path d="M288.837 380.074C288.837 380.074 308.357 353.73 311.338 351.437C314.319 349.144 329.682 339.17 329.682 339.17L333.667 349.826L292.246 387.117L288.837 380.074Z" fill="#E05C22"/>
<path d="M396.752 274.672C396.752 274.672 400.421 288.173 398.586 292.69C396.752 297.207 314.204 349.029 312.369 352.239C310.535 355.449 259.63 413.642 259.63 413.642L205.974 403.058C205.974 403.058 258.713 333.436 271.554 322.888C284.395 312.34 342.637 261.639 342.637 261.639L396.752 274.672Z" fill="#FF7129"/>
<path d="M382.051 177.816L409.375 162.647C410.656 161.936 410.845 160.17 409.743 159.204L395.056 146.326L390.228 129.454C395.249 129.094 411.314 128.586 425.35 139.562C429.075 142.475 442.278 152.799 440.781 164.578C439.819 172.15 431.67 178.381 415.371 190.845C410.653 194.453 406.577 197.287 403.652 199.252L382.051 177.816Z" fill="#3897E9"/>
<path d="M391.001 132.158C391.001 132.158 382.815 129.063 381.431 128.812C380.047 128.561 365.986 132.805 365.986 132.805L366.572 135.883C366.572 135.883 377.085 136.355 377.578 136.648C378.071 136.941 384.344 143.429 385.662 143.979C386.98 144.529 394.709 145.114 394.709 145.114L391.001 132.158Z" fill="#F7A99C"/>
<path d="M364.631 176.377L339.409 157.924C338.226 157.059 338.259 155.283 339.472 154.461L355.649 143.512L362.541 127.372C357.604 126.39 341.727 123.885 326.434 133.028C322.375 135.455 307.99 144.054 308.008 155.928C308.02 163.56 315.33 170.759 329.95 185.155C334.182 189.323 337.874 192.642 340.531 194.956L364.631 176.377Z" fill="#3897E9"/>
<path d="M361.436 129.961C361.436 129.961 369.944 127.909 371.348 127.833C372.752 127.757 386.175 133.718 386.175 133.718L385.211 136.699C385.211 136.699 374.721 135.858 374.195 136.088C373.669 136.317 366.637 141.973 365.261 142.356C363.885 142.738 356.143 142.356 356.143 142.356L361.436 129.961Z" fill="#F7A99C"/>
<path d="M364.631 176.377L382.746 177.743C392.45 182.166 397.743 187.675 400.573 191.272C403.761 195.323 411.703 206.963 409.898 262.508C409.635 270.592 409.246 277.144 408.98 281.158L317.566 256.362C318.624 252.723 328.88 217.776 339.579 196.776C342.393 191.251 346.274 184.659 353.796 180.266C358.035 177.79 362.059 176.814 364.631 176.377Z" fill="#3897E9"/>
<path d="M372.857 185.416C377.848 185.885 382.273 182.219 382.742 177.228L384.569 157.782L366.496 156.084L364.669 175.53C364.201 180.521 367.866 184.947 372.857 185.416Z" fill="#F7A99C"/>
<path d="M365.181 170.087L377.5 165.099C377.289 166.108 376.189 170.823 371.693 173.743C368.822 175.607 365.96 175.834 364.646 175.853L365.181 170.087Z" fill="#FF7769"/>
<path d="M385.551 151.795C385.634 151.506 386.449 151.132 386.701 151.001C387.126 150.78 387.579 150.614 388.047 150.509C388.955 150.305 389.93 150.326 390.817 150.615C392.582 151.191 394.044 152.849 394.177 154.731C394.254 155.824 393.905 156.916 393.354 157.864C392.526 159.288 391.236 160.432 389.74 161.123C388.5 161.696 387.125 161.959 385.762 161.918C385.489 161.91 382.717 161.595 382.747 161.491C383.681 158.258 384.616 155.027 385.551 151.795Z" fill="#F7A99C"/>
<path d="M388.012 152.207C387.667 153.639 385.702 161.18 378.314 165.967C376.953 166.849 367.906 172.711 360.465 168.782C350.904 163.733 353.458 147.512 353.608 146.634C354.114 143.667 355.604 134.931 363.315 130.892C369.608 127.596 375.926 129.586 376.82 129.883C377.763 130.196 383.759 132.297 386.971 138.651C389.887 144.417 388.576 149.863 388.012 152.207Z" fill="#F7A99C"/>
<path d="M359.246 147.153C358.971 148.413 357.905 149.25 356.866 149.023C355.826 148.796 355.206 147.591 355.481 146.332C355.756 145.073 356.822 144.235 357.861 144.462C358.901 144.689 359.521 145.893 359.246 147.153Z" fill="#262626"/>
<path d="M370.596 149.629C370.321 150.889 369.255 151.726 368.216 151.499C367.176 151.272 366.556 150.067 366.831 148.807C367.106 147.547 368.172 146.71 369.211 146.937C370.251 147.165 370.871 148.37 370.596 149.629Z" fill="#262626"/>
<path d="M362.54 149.372L360.566 151.591C360.203 151.999 360.269 152.63 360.707 152.955L362.234 154.085" stroke="#262626" stroke-width="0.733" stroke-miterlimit="10" stroke-linecap="round" stroke-linejoin="round"/>
<path d="M373.907 155.977C373.599 157.39 372.203 158.286 370.79 157.978C369.377 157.67 368.481 156.274 368.789 154.86C369.097 153.447 370.493 152.551 371.906 152.859C373.319 153.167 374.215 154.564 373.907 155.977Z" fill="#FF7769"/>
<path d="M386.175 158.442C386.192 158.155 386.343 156.212 388.027 154.951C389.346 153.964 390.772 154.02 391.16 154.048" stroke="#262626" stroke-width="0.733" stroke-miterlimit="10" stroke-linecap="round" stroke-linejoin="round"/>
<path d="M387.841 155.32C387.929 155.314 388.986 155.264 389.644 156.118C390.185 156.821 390.058 157.619 390.035 157.751" stroke="#262626" stroke-width="0.733" stroke-miterlimit="10" stroke-linecap="round" stroke-linejoin="round"/>
<path d="M388.401 150.445C388.401 150.445 387.105 150.443 386.051 151.317C384.997 152.19 384.505 153.806 384.505 153.806C382.991 153.756 380.796 153.437 378.984 151.954C376.165 149.647 377.219 146.934 374.892 145.106C372.706 143.388 370.868 145.071 362.815 144.647C356.486 144.314 354.69 143.121 354.589 142.285C354.556 142.012 354.68 141.514 354.96 140.527C355.067 140.149 355.194 139.586 355.43 139.059C355.892 138.025 356.459 137.039 357.114 136.116C358.426 134.269 360.093 132.674 361.997 131.447C363.234 130.65 364.572 130.008 365.974 129.556C370.424 128.12 376.375 128.654 381.25 131.847C381.25 131.847 386.694 135.412 388.676 141.608C389.357 143.738 389.39 145.808 389.381 146.524C389.363 147.942 389.121 148.849 388.843 149.536C388.687 149.926 388.522 150.235 388.401 150.445Z" fill="#262626"/>
<path d="M354.662 150.084C354.173 149.977 353.689 150.023 353.249 150.176C353.173 151.581 353.155 153.292 353.3 155.122C353.382 155.149 353.46 155.183 353.546 155.202C354.959 155.51 356.355 154.615 356.663 153.201C356.971 151.788 356.075 150.392 354.662 150.084Z" fill="#FF7769"/>
<path d="M363.771 140.946C362.186 143.976 357.855 144.839 354.097 142.873C350.339 140.908 348.576 136.858 350.161 133.828C351.746 130.798 356.077 129.935 359.835 131.901C363.594 133.866 365.356 137.916 363.771 140.946Z" fill="#262626"/>
<path d="M360.331 158.864C360.721 158.497 361.62 157.75 363.006 157.412C364.356 157.082 365.47 157.31 365.987 157.45" stroke="#262626" stroke-width="0.733" stroke-miterlimit="10" stroke-linecap="round" stroke-linejoin="round"/>
<path d="M268.232 326.004L342.637 261.641" stroke="#262626" stroke-width="0.733" stroke-miterlimit="10" stroke-linecap="round" stroke-linejoin="round"/>
<path d="M289.252 379.595C289.252 379.595 309.862 354.343 312.37 352.24C314.877 350.137 329.861 339.876 329.861 339.876" stroke="#262626" stroke-width="0.733" stroke-miterlimit="10" stroke-linecap="round" stroke-linejoin="round"/>
<path d="M398.585 283.381C398.585 283.381 313.927 339.399 309.556 342.457C305.185 345.514 252.113 412.161 252.113 412.161" stroke="white" stroke-width="0.733" stroke-miterlimit="10" stroke-linecap="round" stroke-linejoin="round"/>
<path d="M340.921 387.614L322.21 345.013" stroke="white" stroke-width="0.733" stroke-miterlimit="10" stroke-linecap="round" stroke-linejoin="round"/>
<path d="M395.908 170.124L414.943 159.781" stroke="#262626" stroke-width="0.733" stroke-miterlimit="10" stroke-linecap="round" stroke-linejoin="round"/>
<path d="M349.015 164.952L333.771 153.805" stroke="#262626" stroke-width="0.733" stroke-miterlimit="10" stroke-linecap="round" stroke-linejoin="round"/>
<path d="M341.393 192.342L332.455 212.728" stroke="#262626" stroke-width="0.733" stroke-miterlimit="10" stroke-linecap="round" stroke-linejoin="round"/>
<path d="M402.965 194.958C402.965 194.958 404.805 198.228 405.878 202.534C406.95 206.84 409.239 222.886 409.239 222.886" stroke="#262626" stroke-width="0.733" stroke-miterlimit="10" stroke-linecap="round" stroke-linejoin="round"/>
<path d="M409.572 227.273L408.981 281.157L336.319 261.447C343.793 262.249 367.682 263.837 389.643 248.367C399.534 241.4 405.808 233.244 409.572 227.273Z" fill="#1775AF"/>
<path d="M325.78 137.961C322.655 140.537 319.224 142.883 316.309 145.695C313.212 148.683 310.907 152.978 312.409 157.314C313.003 159.031 313.914 160.396 316.014 163.043C317.983 165.525 319.902 167.35 321.313 168.57" stroke="white" stroke-width="0.733" stroke-miterlimit="10" stroke-linecap="round" stroke-linejoin="round"/>
<path d="M372.293 190.833C373.31 190.833 374.134 190.009 374.134 188.992C374.134 187.975 373.31 187.151 372.293 187.151C371.276 187.151 370.452 187.975 370.452 188.992C370.452 190.009 371.276 190.833 372.293 190.833Z" fill="white"/>
<path d="M371.837 198.113C372.854 198.113 373.678 197.289 373.678 196.272C373.678 195.255 372.854 194.431 371.837 194.431C370.82 194.431 369.996 195.255 369.996 196.272C369.996 197.289 370.82 198.113 371.837 198.113Z" fill="white"/>
<path d="M371.073 206.248C372.09 206.248 372.914 205.424 372.914 204.407C372.914 203.39 372.09 202.566 371.073 202.566C370.056 202.566 369.232 203.39 369.232 204.407C369.232 205.424 370.056 206.248 371.073 206.248Z" fill="white"/>
<path d="M407.363 293.823H86.536C79.936 293.823 74.585 288.473 74.585 281.872C74.585 275.272 79.935 269.921 86.536 269.921H407.362C413.962 269.921 419.312 275.271 419.312 281.872C419.313 288.472 413.963 293.823 407.363 293.823Z" fill="#FFC001"/>
<path d="M412.684 449.586L407.798 450.219L381.51 285.592L396.168 283.694L412.684 449.586Z" fill="#FFC001"/>
<path d="M85.0261 449.586L89.9121 450.219L116.2 285.592L101.542 283.694L85.0261 449.586Z" fill="#FFC001"/>
<path d="M423.359 188.992L413.652 268.424" stroke="#262626" stroke-width="0.733" stroke-miterlimit="10" stroke-linecap="round" stroke-linejoin="round"/>
<path d="M433.491 190.833L418.505 314.529" stroke="#262626" stroke-width="0.733" stroke-miterlimit="10" stroke-linecap="round" stroke-linejoin="round"/>
<path d="M243.732 275.501H394.187" stroke="white" stroke-width="0.733" stroke-miterlimit="10" stroke-linecap="round" stroke-linejoin="round"/>
<path d="M237.618 275.501H220.497" stroke="white" stroke-width="0.733" stroke-miterlimit="10" stroke-linecap="round" stroke-linejoin="round"/>
<path d="M100.533 293.823L90.6172 393.428" stroke="#262626" stroke-width="0.733" stroke-miterlimit="10" stroke-linecap="round" stroke-linejoin="round"/>
<path d="M382.824 293.823L398.279 390.611" stroke="#262626" stroke-width="0.733" stroke-miterlimit="10" stroke-linecap="round" stroke-linejoin="round"/>
<path d="M322.508 250.737H235.362C232.257 250.737 229.301 248.22 228.759 245.115L218.724 187.637C218.182 184.532 220.259 182.015 223.364 182.015H310.51C313.615 182.015 316.571 184.532 317.113 187.637L327.148 245.115C327.69 248.22 325.613 250.737 322.508 250.737Z" fill="#773B97"/>
<path d="M316.956 250.737H229.81C226.705 250.737 223.749 248.22 223.207 245.115L213.172 187.637C212.63 184.532 214.707 182.015 217.812 182.015H304.958C308.063 182.015 311.019 184.532 311.561 187.637L321.596 245.115C322.139 248.22 320.061 250.737 316.956 250.737Z" fill="#773B97"/>
<path d="M274.922 269.922H246.023L257.276 220.339C257.604 218.891 259.044 217.718 260.492 217.718H284.148C285.596 217.718 286.503 218.892 286.174 220.339L274.922 269.922Z" fill="#773B97"/>
<path d="M271.372 269.922H242.473L253.726 220.339C254.055 218.891 255.494 217.718 256.942 217.718H280.598C282.046 217.718 282.953 218.892 282.624 220.339L271.372 269.922Z" fill="#773B97"/>
<path d="M242.473 269.922L253.726 220.339C254.055 218.891 255.494 217.718 256.942 217.718H280.598" stroke="#262626" stroke-width="0.733" stroke-miterlimit="10" stroke-linecap="round" stroke-linejoin="round"/>
<path d="M360.257 269.922H278.076V267.149C278.076 266.19 278.854 265.412 279.813 265.412H358.52C359.479 265.412 360.257 266.19 360.257 267.149V269.922Z" fill="#773B97"/>
<path d="M382.646 119.066L379.953 117.654L390.359 93.598L397.213 97.191L382.646 119.066Z" fill="#773B97"/>
<path d="M387.596 122.465L386.115 119.81L407.988 105.368L411.758 112.126L387.596 122.465Z" fill="#773B97"/>
<path d="M376.335 115.33L373.384 116.064L365.174 91.172L372.684 89.303L376.335 115.33Z" fill="#773B97"/>
<path d="M181.942 257.139C182.381 254.102 183.381 249.624 185.888 244.754C187.274 242.062 189.547 237.645 193.769 234.362C201.89 228.047 212.325 229.731 214.961 230.235C212.008 230.872 205.81 232.651 200.377 237.997C198.908 239.443 195.976 242.387 194.151 247.05C192.449 251.4 191.633 257.446 191.628 257.445L181.942 257.139Z" fill="#94E261"/>
<path d="M190.845 253.1C191.429 250.088 191.958 245.53 191.193 240.106C190.77 237.108 190.076 232.189 187.169 227.7C181.578 219.065 171.17 217.222 168.514 216.831C171.093 218.403 176.361 222.123 179.733 228.958C180.645 230.807 182.445 234.552 182.634 239.556C182.81 244.224 181.592 250.202 181.596 250.202L190.845 253.1Z" fill="#94E261"/>
<path d="M187.236 256.458C187.171 253.878 186.781 250.038 185.171 245.721C184.281 243.334 182.821 239.42 179.621 236.258C173.466 230.176 164.582 230.546 162.33 230.705C164.734 231.53 169.734 233.632 173.741 238.637C174.825 239.991 176.981 242.741 178.042 246.818C179.032 250.621 179.112 255.752 179.116 255.751L187.236 256.458Z" fill="#94E261"/>
<path d="M189.322 257.445C189.362 255.848 189.604 253.472 190.6 250.8C191.151 249.323 192.054 246.9 194.035 244.944C197.844 241.18 203.342 241.409 204.736 241.508C203.249 242.019 200.154 243.319 197.674 246.417C197.003 247.255 195.669 248.957 195.012 251.48C194.399 253.833 194.349 257.009 194.347 257.009L189.322 257.445Z" fill="#94E261"/>
<path d="M162.329 230.706C172.125 232.684 176.244 236.575 178.169 239.888C181.304 245.284 181.942 254.865 181.942 254.865" stroke="#262626" stroke-width="0.274" stroke-miterlimit="10" stroke-linecap="round" stroke-linejoin="round"/>
<path d="M168.827 216.879C172.283 218.305 179.437 221.883 183.732 229.565C186.511 234.534 187.148 239.532 187.553 242.711C188.153 247.413 187.906 251.391 187.553 254.176" stroke="#262626" stroke-width="0.274" stroke-miterlimit="10" stroke-linecap="round" stroke-linejoin="round"/>
<path d="M214.961 230.235C214.028 230.077 203.914 228.54 196.421 236.138C189.637 243.016 190.41 251.896 190.536 253.1" stroke="#262626" stroke-width="0.274" stroke-miterlimit="10" stroke-linecap="round" stroke-linejoin="round"/>
<path d="M204.736 241.507C204.048 241.523 198.569 241.739 195.121 246.38C192.45 249.974 192.73 253.89 192.828 254.864" stroke="#262626" stroke-width="0.274" stroke-miterlimit="10" stroke-linecap="round" stroke-linejoin="round"/>
<path d="M189.276 270.808H184.805C180.675 270.808 177.328 267.46 177.328 263.331V252.006H196.754V263.331C196.753 267.46 193.405 270.808 189.276 270.808Z" fill="#FDB6D6"/>
<path d="M194.607 256.458V261.961C194.607 265.254 191.938 267.923 188.645 267.923H187.04" stroke="white" stroke-width="0.733" stroke-miterlimit="10" stroke-linecap="round" stroke-linejoin="round"/>
<path d="M65.3182 190.499C64.5672 186.957 64.2322 184.047 64.3142 181.771C64.3962 179.495 65.0262 177.291 66.2052 175.159C66.8772 173.887 67.6992 172.741 68.6752 171.717C69.6492 170.696 70.5252 169.647 71.3022 168.572C72.0772 167.499 72.6802 166.35 73.1122 165.129C73.5432 163.908 73.5752 162.428 73.2052 160.686C72.5812 157.745 71.3342 155.86 69.4652 155.033C67.5962 154.206 65.5492 154.028 63.3292 154.499C60.1462 155.174 58.1432 156.526 57.3182 158.55C56.4922 160.577 56.2482 163.122 56.5852 166.188L44.9682 168.652C44.3442 165.711 44.2572 162.937 44.7082 160.331C45.1592 157.727 46.0922 155.395 47.5072 153.338C48.9212 151.282 50.7792 149.539 53.0802 148.109C55.3792 146.68 58.0312 145.647 61.0342 145.01C67.5182 143.635 72.9162 143.871 77.2302 145.716C81.5422 147.563 84.3302 151.457 85.5902 157.401C85.9982 159.323 86.1582 161.045 86.0742 162.569C85.9892 164.093 85.6802 165.523 85.1492 166.859C84.6162 168.195 83.8882 169.495 82.9642 170.757C82.0392 172.021 80.9712 173.344 79.7602 174.73C78.6552 176.032 77.7902 177.203 77.1642 178.245C76.5382 179.288 76.1162 180.335 75.9012 181.383C75.6842 182.433 75.6272 183.497 75.7302 184.572C75.8322 185.649 76.0252 186.848 76.3052 188.168L65.3182 190.499ZM68.6452 207.957L66.1422 196.159L78.3002 193.58L80.8022 205.378L68.6452 207.957Z" fill="#773B97"/>
</svg>
